<mxfile host="www.draw.io" modified="2019-11-03T04:17:31.613Z" agent="Mozilla/5.0 (Windows NT 10.0; Win64; x64) AppleWebKit/537.36 (KHTML, like Gecko) Chrome/74.0.3729.157 Safari/537.36" etag="TBxw5srQQFMgJYvfgEy9" version="12.1.9" type="github" pages="1">
  <diagram id="ucN_eq42EwhsVekuWUfu" name="第 1 页">
    <mxGraphModel dx="2683" dy="896" grid="1" gridSize="10" guides="1" tooltips="1" connect="1" arrows="1" fold="1" page="1" pageScale="1" pageWidth="827" pageHeight="1169" math="0" shadow="0">
      <root>
        <mxCell id="0"/>
        <mxCell id="1" parent="0"/>
        <mxCell id="BSNSr3al7UwsHHKzE54c-1" value="" style="endArrow=none;html=1;strokeWidth=3;" parent="1" edge="1">
          <mxGeometry width="50" height="50" relative="1" as="geometry">
            <mxPoint x="165" y="280" as="sourcePoint"/>
            <mxPoint x="165" y="40" as="targetPoint"/>
          </mxGeometry>
        </mxCell>
        <mxCell id="BSNSr3al7UwsHHKzE54c-2" value="" style="endArrow=none;html=1;strokeWidth=3;" parent="1" edge="1">
          <mxGeometry width="50" height="50" relative="1" as="geometry">
            <mxPoint x="135" y="280" as="sourcePoint"/>
            <mxPoint x="135" y="40" as="targetPoint"/>
          </mxGeometry>
        </mxCell>
        <mxCell id="BSNSr3al7UwsHHKzE54c-3" value="" style="endArrow=none;html=1;strokeWidth=3;" parent="1" edge="1">
          <mxGeometry width="50" height="50" relative="1" as="geometry">
            <mxPoint x="105" y="280" as="sourcePoint"/>
            <mxPoint x="105" y="40" as="targetPoint"/>
          </mxGeometry>
        </mxCell>
        <mxCell id="BSNSr3al7UwsHHKzE54c-4" value="" style="endArrow=none;html=1;strokeWidth=3;" parent="1" edge="1">
          <mxGeometry width="50" height="50" relative="1" as="geometry">
            <mxPoint x="76" y="280" as="sourcePoint"/>
            <mxPoint x="76" y="40" as="targetPoint"/>
          </mxGeometry>
        </mxCell>
        <mxCell id="Uz3SCJ1bhqu5c_YVx1Ex-119" value="" style="endArrow=none;html=1;strokeWidth=3;" edge="1" parent="1">
          <mxGeometry width="50" height="50" relative="1" as="geometry">
            <mxPoint x="193" y="280" as="sourcePoint"/>
            <mxPoint x="193" y="40" as="targetPoint"/>
          </mxGeometry>
        </mxCell>
        <mxCell id="b7vhbKfn63qTptd5rGrX-1" value="" style="rounded=0;whiteSpace=wrap;html=1;fillColor=#e1d5e7;strokeColor=#9673a6;" parent="1" vertex="1">
          <mxGeometry x="-210" y="100" width="120" height="10" as="geometry"/>
        </mxCell>
        <mxCell id="b7vhbKfn63qTptd5rGrX-2" value="" style="rounded=0;whiteSpace=wrap;html=1;fillColor=#e1d5e7;strokeColor=#9673a6;" parent="1" vertex="1">
          <mxGeometry x="-210" y="135" width="120" height="10" as="geometry"/>
        </mxCell>
        <mxCell id="b7vhbKfn63qTptd5rGrX-3" value="" style="rounded=0;whiteSpace=wrap;html=1;fillColor=#e1d5e7;strokeColor=#9673a6;" parent="1" vertex="1">
          <mxGeometry x="-210" y="170" width="120" height="10" as="geometry"/>
        </mxCell>
        <mxCell id="b7vhbKfn63qTptd5rGrX-4" value="" style="rounded=0;whiteSpace=wrap;html=1;fillColor=#e1d5e7;strokeColor=#9673a6;" parent="1" vertex="1">
          <mxGeometry x="-210" y="205" width="120" height="10" as="geometry"/>
        </mxCell>
        <mxCell id="b7vhbKfn63qTptd5rGrX-5" value="" style="rounded=0;whiteSpace=wrap;html=1;fillColor=#e1d5e7;strokeColor=#9673a6;" parent="1" vertex="1">
          <mxGeometry x="-210" y="240" width="120" height="10" as="geometry"/>
        </mxCell>
        <mxCell id="b7vhbKfn63qTptd5rGrX-6" value="" style="endArrow=none;html=1;" parent="1" edge="1">
          <mxGeometry width="50" height="50" relative="1" as="geometry">
            <mxPoint x="-190" y="270" as="sourcePoint"/>
            <mxPoint x="-190" y="90" as="targetPoint"/>
          </mxGeometry>
        </mxCell>
        <mxCell id="b7vhbKfn63qTptd5rGrX-35" value="" style="group;rotation=90;" parent="1" vertex="1" connectable="0">
          <mxGeometry x="-630" y="255" width="309" height="155" as="geometry"/>
        </mxCell>
        <mxCell id="b7vhbKfn63qTptd5rGrX-24" value="" style="endArrow=none;html=1;strokeWidth=2;" parent="b7vhbKfn63qTptd5rGrX-35" edge="1">
          <mxGeometry width="50" height="50" relative="1" as="geometry">
            <mxPoint x="232" y="182" as="sourcePoint"/>
            <mxPoint x="232" y="-28" as="targetPoint"/>
          </mxGeometry>
        </mxCell>
        <mxCell id="b7vhbKfn63qTptd5rGrX-25" value="" style="endArrow=none;html=1;strokeWidth=2;" parent="b7vhbKfn63qTptd5rGrX-35" edge="1">
          <mxGeometry width="50" height="50" relative="1" as="geometry">
            <mxPoint x="199" y="182" as="sourcePoint"/>
            <mxPoint x="199" y="-28" as="targetPoint"/>
          </mxGeometry>
        </mxCell>
        <mxCell id="b7vhbKfn63qTptd5rGrX-26" value="" style="endArrow=none;html=1;strokeWidth=2;" parent="b7vhbKfn63qTptd5rGrX-35" edge="1">
          <mxGeometry width="50" height="50" relative="1" as="geometry">
            <mxPoint x="168" y="182" as="sourcePoint"/>
            <mxPoint x="168" y="-28" as="targetPoint"/>
          </mxGeometry>
        </mxCell>
        <mxCell id="b7vhbKfn63qTptd5rGrX-27" value="" style="endArrow=none;html=1;strokeWidth=2;" parent="b7vhbKfn63qTptd5rGrX-35" edge="1">
          <mxGeometry width="50" height="50" relative="1" as="geometry">
            <mxPoint x="137" y="182" as="sourcePoint"/>
            <mxPoint x="137" y="-28" as="targetPoint"/>
          </mxGeometry>
        </mxCell>
        <mxCell id="b7vhbKfn63qTptd5rGrX-28" value="" style="endArrow=none;html=1;strokeWidth=2;" parent="b7vhbKfn63qTptd5rGrX-35" edge="1">
          <mxGeometry width="50" height="50" relative="1" as="geometry">
            <mxPoint x="107" y="182" as="sourcePoint"/>
            <mxPoint x="107" y="-28" as="targetPoint"/>
          </mxGeometry>
        </mxCell>
        <mxCell id="b7vhbKfn63qTptd5rGrX-29" value="" style="endArrow=none;html=1;strokeWidth=2;" parent="b7vhbKfn63qTptd5rGrX-35" edge="1">
          <mxGeometry width="50" height="50" relative="1" as="geometry">
            <mxPoint x="77" y="182" as="sourcePoint"/>
            <mxPoint x="77" y="-28" as="targetPoint"/>
          </mxGeometry>
        </mxCell>
        <mxCell id="b7vhbKfn63qTptd5rGrX-30" value="" style="rounded=0;whiteSpace=wrap;html=1;fillColor=#e1d5e7;strokeColor=#9673a6;rotation=0;strokeWidth=2;" parent="b7vhbKfn63qTptd5rGrX-35" vertex="1">
          <mxGeometry x="56" y="13" width="190" height="10" as="geometry"/>
        </mxCell>
        <mxCell id="b7vhbKfn63qTptd5rGrX-31" value="" style="rounded=0;whiteSpace=wrap;html=1;fillColor=#e1d5e7;strokeColor=#9673a6;rotation=0;strokeWidth=2;" parent="b7vhbKfn63qTptd5rGrX-35" vertex="1">
          <mxGeometry x="57" y="42" width="190" height="10" as="geometry"/>
        </mxCell>
        <mxCell id="b7vhbKfn63qTptd5rGrX-32" value="" style="rounded=0;whiteSpace=wrap;html=1;fillColor=#e1d5e7;strokeColor=#9673a6;rotation=0;strokeWidth=2;" parent="b7vhbKfn63qTptd5rGrX-35" vertex="1">
          <mxGeometry x="57" y="72" width="190" height="10" as="geometry"/>
        </mxCell>
        <mxCell id="b7vhbKfn63qTptd5rGrX-33" value="" style="rounded=0;whiteSpace=wrap;html=1;fillColor=#e1d5e7;strokeColor=#9673a6;rotation=0;strokeWidth=2;" parent="b7vhbKfn63qTptd5rGrX-35" vertex="1">
          <mxGeometry x="57" y="102" width="190" height="10" as="geometry"/>
        </mxCell>
        <mxCell id="b7vhbKfn63qTptd5rGrX-34" value="" style="rounded=0;whiteSpace=wrap;html=1;fillColor=#e1d5e7;strokeColor=#9673a6;rotation=0;strokeWidth=2;" parent="b7vhbKfn63qTptd5rGrX-35" vertex="1">
          <mxGeometry x="57" y="132" width="190" height="10" as="geometry"/>
        </mxCell>
        <mxCell id="BSNSr3al7UwsHHKzE54c-13" value="" style="shape=singleArrow;whiteSpace=wrap;html=1;arrowWidth=0.3633217993079607;arrowSize=0.530882352941164;strokeWidth=2;fillColor=#000000;strokeColor=#000000;" parent="1" vertex="1">
          <mxGeometry x="222" y="148" width="40" height="34" as="geometry"/>
        </mxCell>
        <mxCell id="BSNSr3al7UwsHHKzE54c-17" value="" style="rounded=0;whiteSpace=wrap;html=1;fillColor=#d5e8d4;strokeColor=#82b366;rotation=-90;strokeWidth=2;" parent="1" vertex="1">
          <mxGeometry x="266.5" y="57" width="20" height="5" as="geometry"/>
        </mxCell>
        <mxCell id="BSNSr3al7UwsHHKzE54c-20" value="" style="rounded=0;whiteSpace=wrap;html=1;fillColor=#d5e8d4;strokeColor=#82b366;rotation=-90;strokeWidth=2;" parent="1" vertex="1">
          <mxGeometry x="274.5" y="60" width="14" height="5" as="geometry"/>
        </mxCell>
        <mxCell id="BSNSr3al7UwsHHKzE54c-21" value="" style="rounded=0;whiteSpace=wrap;html=1;fillColor=#d5e8d4;strokeColor=#82b366;rotation=-90;strokeWidth=2;" parent="1" vertex="1">
          <mxGeometry x="273.5" y="54" width="26" height="5" as="geometry"/>
        </mxCell>
        <mxCell id="BSNSr3al7UwsHHKzE54c-23" value="" style="rounded=0;whiteSpace=wrap;html=1;fillColor=#d5e8d4;strokeColor=#82b366;rotation=-90;strokeWidth=2;" parent="1" vertex="1">
          <mxGeometry x="288.5" y="64" width="6" height="5" as="geometry"/>
        </mxCell>
        <mxCell id="BSNSr3al7UwsHHKzE54c-24" value="" style="rounded=0;whiteSpace=wrap;html=1;fillColor=#d5e8d4;strokeColor=#82b366;rotation=-90;strokeWidth=2;" parent="1" vertex="1">
          <mxGeometry x="289.5" y="60" width="14" height="5" as="geometry"/>
        </mxCell>
        <mxCell id="BSNSr3al7UwsHHKzE54c-25" value="" style="rounded=0;whiteSpace=wrap;html=1;fillColor=#d5e8d4;strokeColor=#82b366;rotation=-90;strokeWidth=2;" parent="1" vertex="1">
          <mxGeometry x="291.5" y="57" width="20" height="5" as="geometry"/>
        </mxCell>
        <mxCell id="BSNSr3al7UwsHHKzE54c-28" value="" style="rounded=0;whiteSpace=wrap;html=1;fillColor=#d5e8d4;strokeColor=#82b366;rotation=-90;strokeWidth=2;" parent="1" vertex="1">
          <mxGeometry x="298.5" y="59" width="16" height="5" as="geometry"/>
        </mxCell>
        <mxCell id="BSNSr3al7UwsHHKzE54c-30" value="" style="rounded=0;whiteSpace=wrap;html=1;fillColor=#d5e8d4;strokeColor=#82b366;rotation=-90;strokeWidth=2;" parent="1" vertex="1">
          <mxGeometry x="307.5" y="57" width="20" height="5" as="geometry"/>
        </mxCell>
        <mxCell id="BSNSr3al7UwsHHKzE54c-31" value="" style="rounded=0;whiteSpace=wrap;html=1;fillColor=#d5e8d4;strokeColor=#82b366;rotation=-90;strokeWidth=2;" parent="1" vertex="1">
          <mxGeometry x="315.5" y="60" width="14" height="5" as="geometry"/>
        </mxCell>
        <mxCell id="BSNSr3al7UwsHHKzE54c-32" value="" style="rounded=0;whiteSpace=wrap;html=1;fillColor=#d5e8d4;strokeColor=#82b366;rotation=-90;strokeWidth=2;" parent="1" vertex="1">
          <mxGeometry x="312.5" y="51" width="32" height="5" as="geometry"/>
        </mxCell>
        <mxCell id="BSNSr3al7UwsHHKzE54c-33" value="" style="rounded=0;whiteSpace=wrap;html=1;fillColor=#d5e8d4;strokeColor=#82b366;rotation=-90;strokeWidth=2;" parent="1" vertex="1">
          <mxGeometry x="330.5" y="64" width="6" height="5" as="geometry"/>
        </mxCell>
        <mxCell id="BSNSr3al7UwsHHKzE54c-34" value="" style="rounded=0;whiteSpace=wrap;html=1;fillColor=#d5e8d4;strokeColor=#82b366;rotation=-90;strokeWidth=2;" parent="1" vertex="1">
          <mxGeometry x="332.5" y="60" width="14" height="5" as="geometry"/>
        </mxCell>
        <mxCell id="BSNSr3al7UwsHHKzE54c-35" value="" style="rounded=0;whiteSpace=wrap;html=1;fillColor=#d5e8d4;strokeColor=#82b366;rotation=-90;strokeWidth=2;" parent="1" vertex="1">
          <mxGeometry x="334.5" y="57" width="20" height="5" as="geometry"/>
        </mxCell>
        <mxCell id="BSNSr3al7UwsHHKzE54c-36" value="" style="rounded=0;whiteSpace=wrap;html=1;fillColor=#d5e8d4;strokeColor=#82b366;rotation=-90;strokeWidth=2;" parent="1" vertex="1">
          <mxGeometry x="341.5" y="48" width="38" height="5" as="geometry"/>
        </mxCell>
        <mxCell id="BSNSr3al7UwsHHKzE54c-37" value="" style="rounded=0;whiteSpace=wrap;html=1;fillColor=#d5e8d4;strokeColor=#82b366;rotation=-90;strokeWidth=2;" parent="1" vertex="1">
          <mxGeometry x="341.5" y="59" width="16" height="5" as="geometry"/>
        </mxCell>
        <mxCell id="BSNSr3al7UwsHHKzE54c-38" value="" style="rounded=0;whiteSpace=wrap;html=1;fillColor=#d5e8d4;strokeColor=#82b366;rotation=-90;strokeWidth=2;" parent="1" vertex="1">
          <mxGeometry x="348.5" y="60" width="14" height="5" as="geometry"/>
        </mxCell>
        <mxCell id="BSNSr3al7UwsHHKzE54c-29" value="" style="rounded=0;whiteSpace=wrap;html=1;fillColor=#f8cecc;strokeColor=#b85450;rotation=-90;strokeWidth=2;" parent="1" vertex="1">
          <mxGeometry x="285.5" y="40" width="54" height="5" as="geometry"/>
        </mxCell>
        <mxCell id="BSNSr3al7UwsHHKzE54c-58" value="" style="rounded=0;whiteSpace=wrap;html=1;fillColor=#d5e8d4;strokeColor=#82b366;rotation=-90;strokeWidth=2;" parent="1" vertex="1">
          <mxGeometry x="366" y="57" width="20" height="5" as="geometry"/>
        </mxCell>
        <mxCell id="BSNSr3al7UwsHHKzE54c-59" value="" style="rounded=0;whiteSpace=wrap;html=1;fillColor=#d5e8d4;strokeColor=#82b366;rotation=-90;strokeWidth=2;" parent="1" vertex="1">
          <mxGeometry x="352" y="48" width="38" height="5" as="geometry"/>
        </mxCell>
        <mxCell id="BSNSr3al7UwsHHKzE54c-60" value="" style="rounded=0;whiteSpace=wrap;html=1;fillColor=#d5e8d4;strokeColor=#82b366;rotation=-90;strokeWidth=2;" parent="1" vertex="1">
          <mxGeometry x="373" y="59" width="16" height="5" as="geometry"/>
        </mxCell>
        <mxCell id="BSNSr3al7UwsHHKzE54c-61" value="" style="rounded=0;whiteSpace=wrap;html=1;fillColor=#d5e8d4;strokeColor=#82b366;rotation=-90;strokeWidth=2;" parent="1" vertex="1">
          <mxGeometry x="359" y="60" width="14" height="5" as="geometry"/>
        </mxCell>
        <mxCell id="BSNSr3al7UwsHHKzE54c-62" value="" style="rounded=0;whiteSpace=wrap;html=1;fillColor=#d5e8d4;strokeColor=#82b366;rotation=-90;strokeWidth=2;" parent="1" vertex="1">
          <mxGeometry x="383" y="64" width="6" height="5" as="geometry"/>
        </mxCell>
        <mxCell id="BSNSr3al7UwsHHKzE54c-63" value="" style="rounded=0;whiteSpace=wrap;html=1;fillColor=#d5e8d4;strokeColor=#82b366;rotation=-90;strokeWidth=2;" parent="1" vertex="1">
          <mxGeometry x="381" y="57" width="20" height="5" as="geometry"/>
        </mxCell>
        <mxCell id="BSNSr3al7UwsHHKzE54c-87" value="" style="rounded=0;whiteSpace=wrap;html=1;fillColor=#d5e8d4;strokeColor=#82b366;rotation=-90;strokeWidth=2;" parent="1" vertex="1">
          <mxGeometry x="272" y="116" width="20" height="5" as="geometry"/>
        </mxCell>
        <mxCell id="BSNSr3al7UwsHHKzE54c-88" value="" style="rounded=0;whiteSpace=wrap;html=1;fillColor=#d5e8d4;strokeColor=#82b366;rotation=-90;strokeWidth=2;" parent="1" vertex="1">
          <mxGeometry x="285" y="119" width="14" height="5" as="geometry"/>
        </mxCell>
        <mxCell id="BSNSr3al7UwsHHKzE54c-89" value="" style="rounded=0;whiteSpace=wrap;html=1;fillColor=#d5e8d4;strokeColor=#82b366;rotation=-90;strokeWidth=2;" parent="1" vertex="1">
          <mxGeometry x="273.5" y="113" width="26" height="5" as="geometry"/>
        </mxCell>
        <mxCell id="BSNSr3al7UwsHHKzE54c-90" value="" style="rounded=0;whiteSpace=wrap;html=1;fillColor=#d5e8d4;strokeColor=#82b366;rotation=-90;strokeWidth=2;" parent="1" vertex="1">
          <mxGeometry x="274" y="123" width="6" height="5" as="geometry"/>
        </mxCell>
        <mxCell id="BSNSr3al7UwsHHKzE54c-91" value="" style="rounded=0;whiteSpace=wrap;html=1;fillColor=#d5e8d4;strokeColor=#82b366;rotation=-90;strokeWidth=2;" parent="1" vertex="1">
          <mxGeometry x="305.5" y="119" width="14" height="5" as="geometry"/>
        </mxCell>
        <mxCell id="BSNSr3al7UwsHHKzE54c-92" value="" style="rounded=0;whiteSpace=wrap;html=1;fillColor=#d5e8d4;strokeColor=#82b366;rotation=-90;strokeWidth=2;" parent="1" vertex="1">
          <mxGeometry x="292.5" y="116" width="20" height="5" as="geometry"/>
        </mxCell>
        <mxCell id="BSNSr3al7UwsHHKzE54c-93" value="" style="rounded=0;whiteSpace=wrap;html=1;fillColor=#d5e8d4;strokeColor=#82b366;rotation=-90;strokeWidth=2;" parent="1" vertex="1">
          <mxGeometry x="299.5" y="118" width="16" height="5" as="geometry"/>
        </mxCell>
        <mxCell id="BSNSr3al7UwsHHKzE54c-94" value="" style="rounded=0;whiteSpace=wrap;html=1;fillColor=#d5e8d4;strokeColor=#82b366;rotation=-90;strokeWidth=2;" parent="1" vertex="1">
          <mxGeometry x="308.5" y="116" width="20" height="5" as="geometry"/>
        </mxCell>
        <mxCell id="BSNSr3al7UwsHHKzE54c-95" value="" style="rounded=0;whiteSpace=wrap;html=1;fillColor=#d5e8d4;strokeColor=#82b366;rotation=-90;strokeWidth=2;" parent="1" vertex="1">
          <mxGeometry x="316.5" y="119" width="14" height="5" as="geometry"/>
        </mxCell>
        <mxCell id="BSNSr3al7UwsHHKzE54c-96" value="" style="rounded=0;whiteSpace=wrap;html=1;fillColor=#d5e8d4;strokeColor=#82b366;rotation=-90;strokeWidth=2;" parent="1" vertex="1">
          <mxGeometry x="313.5" y="110" width="32" height="5" as="geometry"/>
        </mxCell>
        <mxCell id="BSNSr3al7UwsHHKzE54c-97" value="" style="rounded=0;whiteSpace=wrap;html=1;fillColor=#d5e8d4;strokeColor=#82b366;rotation=-90;strokeWidth=2;" parent="1" vertex="1">
          <mxGeometry x="331.5" y="123" width="6" height="5" as="geometry"/>
        </mxCell>
        <mxCell id="BSNSr3al7UwsHHKzE54c-98" value="" style="rounded=0;whiteSpace=wrap;html=1;fillColor=#d5e8d4;strokeColor=#82b366;rotation=-90;strokeWidth=2;" parent="1" vertex="1">
          <mxGeometry x="333.5" y="119" width="14" height="5" as="geometry"/>
        </mxCell>
        <mxCell id="BSNSr3al7UwsHHKzE54c-99" value="" style="rounded=0;whiteSpace=wrap;html=1;fillColor=#d5e8d4;strokeColor=#82b366;rotation=-90;strokeWidth=2;" parent="1" vertex="1">
          <mxGeometry x="381.5" y="116" width="20" height="5" as="geometry"/>
        </mxCell>
        <mxCell id="BSNSr3al7UwsHHKzE54c-100" value="" style="rounded=0;whiteSpace=wrap;html=1;fillColor=#d5e8d4;strokeColor=#82b366;rotation=-90;strokeWidth=2;" parent="1" vertex="1">
          <mxGeometry x="277.5" y="107" width="38" height="5" as="geometry"/>
        </mxCell>
        <mxCell id="BSNSr3al7UwsHHKzE54c-102" value="" style="rounded=0;whiteSpace=wrap;html=1;fillColor=#d5e8d4;strokeColor=#82b366;rotation=-90;strokeWidth=2;" parent="1" vertex="1">
          <mxGeometry x="343.5" y="119" width="14" height="5" as="geometry"/>
        </mxCell>
        <mxCell id="BSNSr3al7UwsHHKzE54c-104" value="" style="rounded=0;whiteSpace=wrap;html=1;fillColor=#d5e8d4;strokeColor=#82b366;rotation=-90;strokeWidth=2;" parent="1" vertex="1">
          <mxGeometry x="355.5" y="116" width="20" height="5" as="geometry"/>
        </mxCell>
        <mxCell id="BSNSr3al7UwsHHKzE54c-106" value="" style="rounded=0;whiteSpace=wrap;html=1;fillColor=#d5e8d4;strokeColor=#82b366;rotation=-90;strokeWidth=2;" parent="1" vertex="1">
          <mxGeometry x="362.5" y="118" width="16" height="5" as="geometry"/>
        </mxCell>
        <mxCell id="BSNSr3al7UwsHHKzE54c-107" value="" style="rounded=0;whiteSpace=wrap;html=1;fillColor=#d5e8d4;strokeColor=#82b366;rotation=-90;strokeWidth=2;" parent="1" vertex="1">
          <mxGeometry x="348.5" y="119" width="14" height="5" as="geometry"/>
        </mxCell>
        <mxCell id="BSNSr3al7UwsHHKzE54c-108" value="" style="rounded=0;whiteSpace=wrap;html=1;fillColor=#d5e8d4;strokeColor=#82b366;rotation=-90;strokeWidth=2;" parent="1" vertex="1">
          <mxGeometry x="372.5" y="123" width="6" height="5" as="geometry"/>
        </mxCell>
        <mxCell id="BSNSr3al7UwsHHKzE54c-109" value="" style="rounded=0;whiteSpace=wrap;html=1;fillColor=#d5e8d4;strokeColor=#82b366;rotation=-90;strokeWidth=2;" parent="1" vertex="1">
          <mxGeometry x="370.5" y="116" width="20" height="5" as="geometry"/>
        </mxCell>
        <mxCell id="BSNSr3al7UwsHHKzE54c-133" value="" style="rounded=0;whiteSpace=wrap;html=1;fillColor=#d5e8d4;strokeColor=#82b366;rotation=-90;strokeWidth=2;" parent="1" vertex="1">
          <mxGeometry x="342.5" y="123" width="6" height="5" as="geometry"/>
        </mxCell>
        <mxCell id="BSNSr3al7UwsHHKzE54c-134" value="" style="rounded=0;whiteSpace=wrap;html=1;fillColor=#d5e8d4;strokeColor=#82b366;rotation=-90;strokeWidth=2;" parent="1" vertex="1">
          <mxGeometry x="357.5" y="123" width="6" height="5" as="geometry"/>
        </mxCell>
        <mxCell id="BSNSr3al7UwsHHKzE54c-103" value="" style="rounded=0;whiteSpace=wrap;html=1;fillColor=#f8cecc;strokeColor=#b85450;rotation=-90;strokeWidth=2;" parent="1" vertex="1">
          <mxGeometry x="359" y="99" width="54" height="5" as="geometry"/>
        </mxCell>
        <mxCell id="BSNSr3al7UwsHHKzE54c-135" value="" style="rounded=0;whiteSpace=wrap;html=1;fillColor=#d5e8d4;strokeColor=#82b366;rotation=-90;strokeWidth=2;" parent="1" vertex="1">
          <mxGeometry x="337" y="234" width="20" height="5" as="geometry"/>
        </mxCell>
        <mxCell id="BSNSr3al7UwsHHKzE54c-136" value="" style="rounded=0;whiteSpace=wrap;html=1;fillColor=#d5e8d4;strokeColor=#82b366;rotation=-90;strokeWidth=2;" parent="1" vertex="1">
          <mxGeometry x="375" y="237" width="14" height="5" as="geometry"/>
        </mxCell>
        <mxCell id="BSNSr3al7UwsHHKzE54c-137" value="" style="rounded=0;whiteSpace=wrap;html=1;fillColor=#d5e8d4;strokeColor=#82b366;rotation=-90;strokeWidth=2;" parent="1" vertex="1">
          <mxGeometry x="306.5" y="231" width="26" height="5" as="geometry"/>
        </mxCell>
        <mxCell id="BSNSr3al7UwsHHKzE54c-138" value="" style="rounded=0;whiteSpace=wrap;html=1;fillColor=#d5e8d4;strokeColor=#82b366;rotation=-90;strokeWidth=2;" parent="1" vertex="1">
          <mxGeometry x="300.5" y="241" width="6" height="5" as="geometry"/>
        </mxCell>
        <mxCell id="BSNSr3al7UwsHHKzE54c-139" value="" style="rounded=0;whiteSpace=wrap;html=1;fillColor=#d5e8d4;strokeColor=#82b366;rotation=-90;strokeWidth=2;" parent="1" vertex="1">
          <mxGeometry x="302.5" y="237" width="14" height="5" as="geometry"/>
        </mxCell>
        <mxCell id="BSNSr3al7UwsHHKzE54c-140" value="" style="rounded=0;whiteSpace=wrap;html=1;fillColor=#d5e8d4;strokeColor=#82b366;rotation=-90;strokeWidth=2;" parent="1" vertex="1">
          <mxGeometry x="304.5" y="234" width="20" height="5" as="geometry"/>
        </mxCell>
        <mxCell id="BSNSr3al7UwsHHKzE54c-141" value="" style="rounded=0;whiteSpace=wrap;html=1;fillColor=#d5e8d4;strokeColor=#82b366;rotation=-90;strokeWidth=2;" parent="1" vertex="1">
          <mxGeometry x="348.5" y="236" width="16" height="5" as="geometry"/>
        </mxCell>
        <mxCell id="BSNSr3al7UwsHHKzE54c-142" value="" style="rounded=0;whiteSpace=wrap;html=1;fillColor=#d5e8d4;strokeColor=#82b366;rotation=-90;strokeWidth=2;" parent="1" vertex="1">
          <mxGeometry x="278.5" y="234" width="20" height="5" as="geometry"/>
        </mxCell>
        <mxCell id="BSNSr3al7UwsHHKzE54c-143" value="" style="rounded=0;whiteSpace=wrap;html=1;fillColor=#d5e8d4;strokeColor=#82b366;rotation=-90;strokeWidth=2;" parent="1" vertex="1">
          <mxGeometry x="286.5" y="237" width="14" height="5" as="geometry"/>
        </mxCell>
        <mxCell id="BSNSr3al7UwsHHKzE54c-144" value="" style="rounded=0;whiteSpace=wrap;html=1;fillColor=#d5e8d4;strokeColor=#82b366;rotation=-90;strokeWidth=2;" parent="1" vertex="1">
          <mxGeometry x="356" y="228" width="32" height="5" as="geometry"/>
        </mxCell>
        <mxCell id="BSNSr3al7UwsHHKzE54c-145" value="" style="rounded=0;whiteSpace=wrap;html=1;fillColor=#d5e8d4;strokeColor=#82b366;rotation=-90;strokeWidth=2;" parent="1" vertex="1">
          <mxGeometry x="279.5" y="241" width="6" height="5" as="geometry"/>
        </mxCell>
        <mxCell id="BSNSr3al7UwsHHKzE54c-146" value="" style="rounded=0;whiteSpace=wrap;html=1;fillColor=#d5e8d4;strokeColor=#82b366;rotation=-90;strokeWidth=2;" parent="1" vertex="1">
          <mxGeometry x="318.5" y="237" width="14" height="5" as="geometry"/>
        </mxCell>
        <mxCell id="BSNSr3al7UwsHHKzE54c-147" value="" style="rounded=0;whiteSpace=wrap;html=1;fillColor=#d5e8d4;strokeColor=#82b366;rotation=-90;strokeWidth=2;" parent="1" vertex="1">
          <mxGeometry x="320.5" y="234" width="20" height="5" as="geometry"/>
        </mxCell>
        <mxCell id="BSNSr3al7UwsHHKzE54c-148" value="" style="rounded=0;whiteSpace=wrap;html=1;fillColor=#d5e8d4;strokeColor=#82b366;rotation=-90;strokeWidth=2;" parent="1" vertex="1">
          <mxGeometry x="368" y="225" width="38" height="5" as="geometry"/>
        </mxCell>
        <mxCell id="BSNSr3al7UwsHHKzE54c-149" value="" style="rounded=0;whiteSpace=wrap;html=1;fillColor=#d5e8d4;strokeColor=#82b366;rotation=-90;strokeWidth=2;" parent="1" vertex="1">
          <mxGeometry x="327.5" y="236" width="16" height="5" as="geometry"/>
        </mxCell>
        <mxCell id="BSNSr3al7UwsHHKzE54c-150" value="" style="rounded=0;whiteSpace=wrap;html=1;fillColor=#d5e8d4;strokeColor=#82b366;rotation=-90;strokeWidth=2;" parent="1" vertex="1">
          <mxGeometry x="334.5" y="237" width="14" height="5" as="geometry"/>
        </mxCell>
        <mxCell id="BSNSr3al7UwsHHKzE54c-152" value="" style="rounded=0;whiteSpace=wrap;html=1;fillColor=#d5e8d4;strokeColor=#82b366;rotation=-90;strokeWidth=2;" parent="1" vertex="1">
          <mxGeometry x="352" y="234" width="20" height="5" as="geometry"/>
        </mxCell>
        <mxCell id="BSNSr3al7UwsHHKzE54c-153" value="" style="rounded=0;whiteSpace=wrap;html=1;fillColor=#d5e8d4;strokeColor=#82b366;rotation=-90;strokeWidth=2;" parent="1" vertex="1">
          <mxGeometry x="333" y="225" width="38" height="5" as="geometry"/>
        </mxCell>
        <mxCell id="BSNSr3al7UwsHHKzE54c-154" value="" style="rounded=0;whiteSpace=wrap;html=1;fillColor=#d5e8d4;strokeColor=#82b366;rotation=-90;strokeWidth=2;" parent="1" vertex="1">
          <mxGeometry x="385" y="236" width="16" height="5" as="geometry"/>
        </mxCell>
        <mxCell id="BSNSr3al7UwsHHKzE54c-155" value="" style="rounded=0;whiteSpace=wrap;html=1;fillColor=#d5e8d4;strokeColor=#82b366;rotation=-90;strokeWidth=2;" parent="1" vertex="1">
          <mxGeometry x="291.5" y="237" width="14" height="5" as="geometry"/>
        </mxCell>
        <mxCell id="BSNSr3al7UwsHHKzE54c-158" value="" style="rounded=0;whiteSpace=wrap;html=1;fillColor=#d5e8d4;strokeColor=#82b366;rotation=-90;strokeWidth=2;" parent="1" vertex="1">
          <mxGeometry x="374" y="241" width="6" height="5" as="geometry"/>
        </mxCell>
        <mxCell id="BSNSr3al7UwsHHKzE54c-161" value="" style="rounded=0;whiteSpace=wrap;html=1;fillColor=#d5e8d4;strokeColor=#82b366;rotation=-90;strokeWidth=2;" parent="1" vertex="1">
          <mxGeometry x="357" y="234" width="20" height="5" as="geometry"/>
        </mxCell>
        <mxCell id="BSNSr3al7UwsHHKzE54c-162" value="" style="rounded=0;whiteSpace=wrap;html=1;fillColor=#f8cecc;strokeColor=#b85450;rotation=-90;strokeWidth=2;" parent="1" vertex="1">
          <mxGeometry x="250" y="217" width="54" height="5" as="geometry"/>
        </mxCell>
        <mxCell id="BSNSr3al7UwsHHKzE54c-186" value="" style="rounded=0;whiteSpace=wrap;html=1;fillColor=#d5e8d4;strokeColor=#82b366;rotation=-90;strokeWidth=2;" parent="1" vertex="1">
          <mxGeometry x="377" y="175" width="20" height="5" as="geometry"/>
        </mxCell>
        <mxCell id="BSNSr3al7UwsHHKzE54c-187" value="" style="rounded=0;whiteSpace=wrap;html=1;fillColor=#d5e8d4;strokeColor=#82b366;rotation=-90;strokeWidth=2;" parent="1" vertex="1">
          <mxGeometry x="280" y="178" width="14" height="5" as="geometry"/>
        </mxCell>
        <mxCell id="BSNSr3al7UwsHHKzE54c-188" value="" style="rounded=0;whiteSpace=wrap;html=1;fillColor=#d5e8d4;strokeColor=#82b366;rotation=-90;strokeWidth=2;" parent="1" vertex="1">
          <mxGeometry x="346.5" y="172" width="26" height="5" as="geometry"/>
        </mxCell>
        <mxCell id="BSNSr3al7UwsHHKzE54c-189" value="" style="rounded=0;whiteSpace=wrap;html=1;fillColor=#d5e8d4;strokeColor=#82b366;rotation=-90;strokeWidth=2;" parent="1" vertex="1">
          <mxGeometry x="295" y="182" width="6" height="5" as="geometry"/>
        </mxCell>
        <mxCell id="BSNSr3al7UwsHHKzE54c-190" value="" style="rounded=0;whiteSpace=wrap;html=1;fillColor=#d5e8d4;strokeColor=#82b366;rotation=-90;strokeWidth=2;" parent="1" vertex="1">
          <mxGeometry x="297" y="178" width="14" height="5" as="geometry"/>
        </mxCell>
        <mxCell id="BSNSr3al7UwsHHKzE54c-191" value="" style="rounded=0;whiteSpace=wrap;html=1;fillColor=#d5e8d4;strokeColor=#82b366;rotation=-90;strokeWidth=2;" parent="1" vertex="1">
          <mxGeometry x="299" y="175" width="20" height="5" as="geometry"/>
        </mxCell>
        <mxCell id="BSNSr3al7UwsHHKzE54c-192" value="" style="rounded=0;whiteSpace=wrap;html=1;fillColor=#d5e8d4;strokeColor=#82b366;rotation=-90;strokeWidth=2;" parent="1" vertex="1">
          <mxGeometry x="306" y="177" width="16" height="5" as="geometry"/>
        </mxCell>
        <mxCell id="BSNSr3al7UwsHHKzE54c-193" value="" style="rounded=0;whiteSpace=wrap;html=1;fillColor=#d5e8d4;strokeColor=#82b366;rotation=-90;strokeWidth=2;" parent="1" vertex="1">
          <mxGeometry x="338.5" y="169" width="32" height="5" as="geometry"/>
        </mxCell>
        <mxCell id="BSNSr3al7UwsHHKzE54c-194" value="" style="rounded=0;whiteSpace=wrap;html=1;fillColor=#d5e8d4;strokeColor=#82b366;rotation=-90;strokeWidth=2;" parent="1" vertex="1">
          <mxGeometry x="358.5" y="178" width="14" height="5" as="geometry"/>
        </mxCell>
        <mxCell id="BSNSr3al7UwsHHKzE54c-195" value="" style="rounded=0;whiteSpace=wrap;html=1;fillColor=#d5e8d4;strokeColor=#82b366;rotation=-90;strokeWidth=2;" parent="1" vertex="1">
          <mxGeometry x="360.5" y="175" width="20" height="5" as="geometry"/>
        </mxCell>
        <mxCell id="BSNSr3al7UwsHHKzE54c-196" value="" style="rounded=0;whiteSpace=wrap;html=1;fillColor=#d5e8d4;strokeColor=#82b366;rotation=-90;strokeWidth=2;" parent="1" vertex="1">
          <mxGeometry x="258" y="166" width="38" height="5" as="geometry"/>
        </mxCell>
        <mxCell id="BSNSr3al7UwsHHKzE54c-197" value="" style="rounded=0;whiteSpace=wrap;html=1;fillColor=#d5e8d4;strokeColor=#82b366;rotation=-90;strokeWidth=2;" parent="1" vertex="1">
          <mxGeometry x="367.5" y="177" width="16" height="5" as="geometry"/>
        </mxCell>
        <mxCell id="BSNSr3al7UwsHHKzE54c-198" value="" style="rounded=0;whiteSpace=wrap;html=1;fillColor=#d5e8d4;strokeColor=#82b366;rotation=-90;strokeWidth=2;" parent="1" vertex="1">
          <mxGeometry x="374.5" y="178" width="14" height="5" as="geometry"/>
        </mxCell>
        <mxCell id="BSNSr3al7UwsHHKzE54c-199" value="" style="rounded=0;whiteSpace=wrap;html=1;fillColor=#d5e8d4;strokeColor=#82b366;rotation=-90;strokeWidth=2;" parent="1" vertex="1">
          <mxGeometry x="308.5" y="175" width="20" height="5" as="geometry"/>
        </mxCell>
        <mxCell id="BSNSr3al7UwsHHKzE54c-200" value="" style="rounded=0;whiteSpace=wrap;html=1;fillColor=#d5e8d4;strokeColor=#82b366;rotation=-90;strokeWidth=2;" parent="1" vertex="1">
          <mxGeometry x="373" y="166" width="38" height="5" as="geometry"/>
        </mxCell>
        <mxCell id="BSNSr3al7UwsHHKzE54c-201" value="" style="rounded=0;whiteSpace=wrap;html=1;fillColor=#d5e8d4;strokeColor=#82b366;rotation=-90;strokeWidth=2;" parent="1" vertex="1">
          <mxGeometry x="315.5" y="177" width="16" height="5" as="geometry"/>
        </mxCell>
        <mxCell id="BSNSr3al7UwsHHKzE54c-202" value="" style="rounded=0;whiteSpace=wrap;html=1;fillColor=#d5e8d4;strokeColor=#82b366;rotation=-90;strokeWidth=2;" parent="1" vertex="1">
          <mxGeometry x="286" y="178" width="14" height="5" as="geometry"/>
        </mxCell>
        <mxCell id="BSNSr3al7UwsHHKzE54c-203" value="" style="rounded=0;whiteSpace=wrap;html=1;fillColor=#d5e8d4;strokeColor=#82b366;rotation=-90;strokeWidth=2;" parent="1" vertex="1">
          <mxGeometry x="325.5" y="182" width="6" height="5" as="geometry"/>
        </mxCell>
        <mxCell id="BSNSr3al7UwsHHKzE54c-204" value="" style="rounded=0;whiteSpace=wrap;html=1;fillColor=#d5e8d4;strokeColor=#82b366;rotation=-90;strokeWidth=2;" parent="1" vertex="1">
          <mxGeometry x="323.5" y="175" width="20" height="5" as="geometry"/>
        </mxCell>
        <mxCell id="BSNSr3al7UwsHHKzE54c-205" value="" style="rounded=0;whiteSpace=wrap;html=1;fillColor=#d5e8d4;strokeColor=#82b366;rotation=-90;strokeWidth=2;" parent="1" vertex="1">
          <mxGeometry x="279" y="182" width="6" height="5" as="geometry"/>
        </mxCell>
        <mxCell id="BSNSr3al7UwsHHKzE54c-206" value="" style="rounded=0;whiteSpace=wrap;html=1;fillColor=#d5e8d4;strokeColor=#82b366;rotation=-90;strokeWidth=2;" parent="1" vertex="1">
          <mxGeometry x="330.5" y="177" width="16" height="5" as="geometry"/>
        </mxCell>
        <mxCell id="BSNSr3al7UwsHHKzE54c-207" value="" style="rounded=0;whiteSpace=wrap;html=1;fillColor=#d5e8d4;strokeColor=#82b366;rotation=-90;strokeWidth=2;" parent="1" vertex="1">
          <mxGeometry x="339.5" y="175" width="20" height="5" as="geometry"/>
        </mxCell>
        <mxCell id="BSNSr3al7UwsHHKzE54c-208" value="" style="rounded=0;whiteSpace=wrap;html=1;fillColor=#f8cecc;strokeColor=#b85450;rotation=-90;strokeWidth=2;" parent="1" vertex="1">
          <mxGeometry x="317.5" y="158" width="54" height="5" as="geometry"/>
        </mxCell>
        <mxCell id="Uz3SCJ1bhqu5c_YVx1Ex-1" value="" style="shape=singleArrow;whiteSpace=wrap;html=1;arrowWidth=0.3633217993079607;arrowSize=0.530882352941164;strokeWidth=2;fillColor=#000000;strokeColor=#000000;" vertex="1" parent="1">
          <mxGeometry x="405.5" y="148" width="40" height="34" as="geometry"/>
        </mxCell>
        <mxCell id="Uz3SCJ1bhqu5c_YVx1Ex-10" style="edgeStyle=orthogonalEdgeStyle;rounded=0;orthogonalLoop=1;jettySize=auto;html=1;exitX=0.5;exitY=1;exitDx=0;exitDy=0;entryX=0.5;entryY=0;entryDx=0;entryDy=0;" edge="1" parent="1" source="Uz3SCJ1bhqu5c_YVx1Ex-3" target="Uz3SCJ1bhqu5c_YVx1Ex-7">
          <mxGeometry relative="1" as="geometry"/>
        </mxCell>
        <mxCell id="Uz3SCJ1bhqu5c_YVx1Ex-3" value="&lt;font style=&quot;font-size: 15px&quot; face=&quot;Times New Roman&quot;&gt;Start&lt;/font&gt;" style="rounded=1;whiteSpace=wrap;html=1;arcSize=47;strokeWidth=2;fontStyle=1" vertex="1" parent="1">
          <mxGeometry x="440" y="23" width="60" height="30" as="geometry"/>
        </mxCell>
        <mxCell id="Uz3SCJ1bhqu5c_YVx1Ex-12" style="edgeStyle=orthogonalEdgeStyle;rounded=0;orthogonalLoop=1;jettySize=auto;html=1;exitX=0.5;exitY=1;exitDx=0;exitDy=0;entryX=0.5;entryY=0;entryDx=0;entryDy=0;" edge="1" parent="1" source="Uz3SCJ1bhqu5c_YVx1Ex-4" target="Uz3SCJ1bhqu5c_YVx1Ex-5">
          <mxGeometry relative="1" as="geometry"/>
        </mxCell>
        <mxCell id="Uz3SCJ1bhqu5c_YVx1Ex-4" value="&lt;font face=&quot;Times New Roman&quot;&gt;M&lt;sub&gt;2&lt;/sub&gt;&lt;/font&gt;" style="rounded=0;whiteSpace=wrap;html=1;fillColor=#FFFFFF;strokeColor=#B85450;strokeWidth=2;fontStyle=1" vertex="1" parent="1">
          <mxGeometry x="455" y="114" width="30" height="20" as="geometry"/>
        </mxCell>
        <mxCell id="Uz3SCJ1bhqu5c_YVx1Ex-13" style="edgeStyle=orthogonalEdgeStyle;rounded=0;orthogonalLoop=1;jettySize=auto;html=1;exitX=0.5;exitY=1;exitDx=0;exitDy=0;entryX=0.5;entryY=0;entryDx=0;entryDy=0;" edge="1" parent="1" source="Uz3SCJ1bhqu5c_YVx1Ex-5" target="Uz3SCJ1bhqu5c_YVx1Ex-6">
          <mxGeometry relative="1" as="geometry"/>
        </mxCell>
        <mxCell id="Uz3SCJ1bhqu5c_YVx1Ex-5" value="&lt;font face=&quot;Times New Roman&quot;&gt;M&lt;sub&gt;3&lt;/sub&gt;&lt;/font&gt;" style="rounded=0;whiteSpace=wrap;html=1;fillColor=#FFFFFF;strokeColor=#B85450;strokeWidth=2;fontStyle=1" vertex="1" parent="1">
          <mxGeometry x="455" y="154.5" width="30" height="20" as="geometry"/>
        </mxCell>
        <mxCell id="Uz3SCJ1bhqu5c_YVx1Ex-14" style="edgeStyle=orthogonalEdgeStyle;rounded=0;orthogonalLoop=1;jettySize=auto;html=1;exitX=0.5;exitY=1;exitDx=0;exitDy=0;entryX=0.5;entryY=0;entryDx=0;entryDy=0;" edge="1" parent="1" source="Uz3SCJ1bhqu5c_YVx1Ex-6">
          <mxGeometry relative="1" as="geometry">
            <mxPoint x="469.844827586207" y="235.44827586206895" as="targetPoint"/>
          </mxGeometry>
        </mxCell>
        <mxCell id="Uz3SCJ1bhqu5c_YVx1Ex-6" value="&lt;font face=&quot;Times New Roman&quot;&gt;M&lt;sub&gt;4&lt;/sub&gt;&lt;/font&gt;" style="rounded=0;whiteSpace=wrap;html=1;fillColor=#FFFFFF;strokeColor=#B85450;strokeWidth=2;fontStyle=1" vertex="1" parent="1">
          <mxGeometry x="455" y="195" width="30" height="20" as="geometry"/>
        </mxCell>
        <mxCell id="Uz3SCJ1bhqu5c_YVx1Ex-11" style="edgeStyle=orthogonalEdgeStyle;rounded=0;orthogonalLoop=1;jettySize=auto;html=1;exitX=0.5;exitY=1;exitDx=0;exitDy=0;entryX=0.5;entryY=0;entryDx=0;entryDy=0;" edge="1" parent="1" target="Uz3SCJ1bhqu5c_YVx1Ex-4">
          <mxGeometry relative="1" as="geometry">
            <mxPoint x="469.66666666666674" y="95.83333333333337" as="sourcePoint"/>
          </mxGeometry>
        </mxCell>
        <mxCell id="Uz3SCJ1bhqu5c_YVx1Ex-7" value="&lt;font face=&quot;Times New Roman&quot;&gt;M&lt;sub&gt;1&lt;/sub&gt;&lt;/font&gt;" style="rounded=0;whiteSpace=wrap;html=1;fillColor=#FFFFFF;strokeColor=#B85450;strokeWidth=2;fontStyle=1" vertex="1" parent="1">
          <mxGeometry x="455" y="73.5" width="30" height="20" as="geometry"/>
        </mxCell>
        <mxCell id="Uz3SCJ1bhqu5c_YVx1Ex-15" value="" style="endArrow=none;html=1;strokeWidth=2;" edge="1" parent="1">
          <mxGeometry width="50" height="50" relative="1" as="geometry">
            <mxPoint x="-62" y="344" as="sourcePoint"/>
            <mxPoint x="-232" y="344" as="targetPoint"/>
          </mxGeometry>
        </mxCell>
        <mxCell id="Uz3SCJ1bhqu5c_YVx1Ex-16" value="" style="endArrow=none;html=1;strokeWidth=2;" edge="1" parent="1">
          <mxGeometry width="50" height="50" relative="1" as="geometry">
            <mxPoint x="-62" y="391" as="sourcePoint"/>
            <mxPoint x="-232" y="391" as="targetPoint"/>
          </mxGeometry>
        </mxCell>
        <mxCell id="Uz3SCJ1bhqu5c_YVx1Ex-17" value="" style="endArrow=none;html=1;strokeWidth=2;" edge="1" parent="1">
          <mxGeometry width="50" height="50" relative="1" as="geometry">
            <mxPoint x="-62" y="437" as="sourcePoint"/>
            <mxPoint x="-232" y="437" as="targetPoint"/>
          </mxGeometry>
        </mxCell>
        <mxCell id="Uz3SCJ1bhqu5c_YVx1Ex-18" value="" style="endArrow=none;html=1;strokeWidth=2;" edge="1" parent="1">
          <mxGeometry width="50" height="50" relative="1" as="geometry">
            <mxPoint x="-62" y="483" as="sourcePoint"/>
            <mxPoint x="-232" y="483" as="targetPoint"/>
          </mxGeometry>
        </mxCell>
        <mxCell id="Uz3SCJ1bhqu5c_YVx1Ex-19" value="" style="rounded=0;whiteSpace=wrap;html=1;fillColor=#e1d5e7;strokeColor=#9673a6;rotation=-90;strokeWidth=2;" vertex="1" parent="1">
          <mxGeometry x="-300" y="410" width="190" height="10" as="geometry"/>
        </mxCell>
        <mxCell id="Uz3SCJ1bhqu5c_YVx1Ex-20" value="" style="rounded=0;whiteSpace=wrap;html=1;fillColor=#e1d5e7;strokeColor=#9673a6;rotation=-90;strokeWidth=2;" vertex="1" parent="1">
          <mxGeometry x="-270" y="410" width="190" height="10" as="geometry"/>
        </mxCell>
        <mxCell id="Uz3SCJ1bhqu5c_YVx1Ex-21" value="" style="rounded=0;whiteSpace=wrap;html=1;fillColor=#e1d5e7;strokeColor=#9673a6;rotation=-90;strokeWidth=2;" vertex="1" parent="1">
          <mxGeometry x="-240" y="410" width="190" height="10" as="geometry"/>
        </mxCell>
        <mxCell id="Uz3SCJ1bhqu5c_YVx1Ex-22" value="" style="rounded=0;whiteSpace=wrap;html=1;fillColor=#e1d5e7;strokeColor=#9673a6;rotation=-90;strokeWidth=2;" vertex="1" parent="1">
          <mxGeometry x="-210" y="410" width="190" height="10" as="geometry"/>
        </mxCell>
        <mxCell id="Uz3SCJ1bhqu5c_YVx1Ex-23" value="" style="rounded=0;whiteSpace=wrap;html=1;fillColor=#e1d5e7;strokeColor=#9673a6;rotation=-90;strokeWidth=2;" vertex="1" parent="1">
          <mxGeometry x="-181" y="411" width="190" height="10" as="geometry"/>
        </mxCell>
        <mxCell id="Uz3SCJ1bhqu5c_YVx1Ex-24" value="" style="shape=singleArrow;whiteSpace=wrap;html=1;arrowWidth=0.3633217993079607;arrowSize=0.530882352941164;strokeWidth=2;fillColor=#000000;strokeColor=#000000;" vertex="1" parent="1">
          <mxGeometry x="509" y="148" width="40" height="34" as="geometry"/>
        </mxCell>
        <mxCell id="Uz3SCJ1bhqu5c_YVx1Ex-48" style="rounded=0;orthogonalLoop=1;jettySize=auto;html=1;entryX=0;entryY=0.5;entryDx=0;entryDy=0;endArrow=block;endFill=1;exitX=1;exitY=0.5;exitDx=0;exitDy=0;" edge="1" parent="1" source="Uz3SCJ1bhqu5c_YVx1Ex-26" target="Uz3SCJ1bhqu5c_YVx1Ex-44">
          <mxGeometry relative="1" as="geometry"/>
        </mxCell>
        <mxCell id="Uz3SCJ1bhqu5c_YVx1Ex-49" style="edgeStyle=none;rounded=0;orthogonalLoop=1;jettySize=auto;html=1;exitX=1;exitY=0.5;exitDx=0;exitDy=0;entryX=0;entryY=0.5;entryDx=0;entryDy=0;endArrow=block;endFill=1;" edge="1" parent="1" source="Uz3SCJ1bhqu5c_YVx1Ex-26" target="Uz3SCJ1bhqu5c_YVx1Ex-45">
          <mxGeometry relative="1" as="geometry"/>
        </mxCell>
        <mxCell id="Uz3SCJ1bhqu5c_YVx1Ex-50" style="edgeStyle=none;rounded=0;orthogonalLoop=1;jettySize=auto;html=1;exitX=1;exitY=0.5;exitDx=0;exitDy=0;entryX=0;entryY=0.365;entryDx=0;entryDy=0;entryPerimeter=0;endArrow=block;endFill=1;" edge="1" parent="1" source="Uz3SCJ1bhqu5c_YVx1Ex-26" target="Uz3SCJ1bhqu5c_YVx1Ex-46">
          <mxGeometry relative="1" as="geometry"/>
        </mxCell>
        <mxCell id="Uz3SCJ1bhqu5c_YVx1Ex-26" value="&lt;font style=&quot;font-size: 15px&quot; face=&quot;Times New Roman&quot;&gt;Start&lt;/font&gt;" style="rounded=1;whiteSpace=wrap;html=1;arcSize=47;strokeWidth=2;fontStyle=1;rotation=0;" vertex="1" parent="1">
          <mxGeometry x="-435.5" y="826" width="60" height="30" as="geometry"/>
        </mxCell>
        <mxCell id="Uz3SCJ1bhqu5c_YVx1Ex-34" value="&lt;font face=&quot;Times New Roman&quot;&gt;M&lt;sub&gt;1&lt;/sub&gt;&lt;/font&gt;" style="rounded=0;whiteSpace=wrap;html=1;fillColor=#FFFFFF;strokeColor=#d79b00;strokeWidth=2;fontStyle=1;rotation=0;" vertex="1" parent="1">
          <mxGeometry x="-232.5" y="955.5" width="30" height="20" as="geometry"/>
        </mxCell>
        <mxCell id="Uz3SCJ1bhqu5c_YVx1Ex-35" value="&lt;font style=&quot;font-size: 15px&quot; face=&quot;Times New Roman&quot;&gt;End&lt;/font&gt;" style="rounded=1;whiteSpace=wrap;html=1;arcSize=47;strokeWidth=2;fontStyle=1;rotation=-90;" vertex="1" parent="1">
          <mxGeometry x="-191.5" y="826" width="60" height="30" as="geometry"/>
        </mxCell>
        <mxCell id="Uz3SCJ1bhqu5c_YVx1Ex-39" value="" style="ellipse;whiteSpace=wrap;html=1;aspect=fixed;strokeWidth=2;fillColor=#FFFFFF;" vertex="1" parent="1">
          <mxGeometry x="-231.5" y="1003" width="27" height="27" as="geometry"/>
        </mxCell>
        <mxCell id="Uz3SCJ1bhqu5c_YVx1Ex-41" value="" style="whiteSpace=wrap;html=1;shape=mxgraph.basic.pentagon;strokeWidth=2;fillColor=#FFFFFF;" vertex="1" parent="1">
          <mxGeometry x="-233" y="1057.5" width="31" height="30" as="geometry"/>
        </mxCell>
        <mxCell id="Uz3SCJ1bhqu5c_YVx1Ex-44" value="&lt;font face=&quot;Times New Roman&quot;&gt;M&lt;sub&gt;1&lt;/sub&gt;&lt;/font&gt;" style="rounded=0;whiteSpace=wrap;html=1;fillColor=#FFFFFF;strokeColor=#d79b00;strokeWidth=2;fontStyle=1;rotation=0;" vertex="1" parent="1">
          <mxGeometry x="-343.5" y="780" width="30" height="20" as="geometry"/>
        </mxCell>
        <mxCell id="Uz3SCJ1bhqu5c_YVx1Ex-45" value="" style="ellipse;whiteSpace=wrap;html=1;aspect=fixed;strokeWidth=2;fillColor=#FFFFFF;strokeColor=#82b366;" vertex="1" parent="1">
          <mxGeometry x="-342.5" y="827.5" width="27" height="27" as="geometry"/>
        </mxCell>
        <mxCell id="Uz3SCJ1bhqu5c_YVx1Ex-46" value="" style="whiteSpace=wrap;html=1;shape=mxgraph.basic.pentagon;strokeWidth=2;fillColor=#FFFFFF;strokeColor=#82B366;" vertex="1" parent="1">
          <mxGeometry x="-344" y="882" width="31" height="30" as="geometry"/>
        </mxCell>
        <mxCell id="Uz3SCJ1bhqu5c_YVx1Ex-60" style="edgeStyle=none;rounded=0;orthogonalLoop=1;jettySize=auto;html=1;exitX=0.5;exitY=1;exitDx=0;exitDy=0;entryX=0.5;entryY=0;entryDx=0;entryDy=0;entryPerimeter=0;endArrow=block;endFill=1;" edge="1" parent="1" source="Uz3SCJ1bhqu5c_YVx1Ex-54" target="Uz3SCJ1bhqu5c_YVx1Ex-57">
          <mxGeometry relative="1" as="geometry"/>
        </mxCell>
        <mxCell id="Uz3SCJ1bhqu5c_YVx1Ex-76" style="rounded=0;orthogonalLoop=1;jettySize=auto;html=1;exitX=0.5;exitY=1;exitDx=0;exitDy=0;entryX=0.5;entryY=0;entryDx=0;entryDy=0;endArrow=block;endFill=1;fontFamily=Times New Roman;" edge="1" parent="1" source="Uz3SCJ1bhqu5c_YVx1Ex-54" target="Uz3SCJ1bhqu5c_YVx1Ex-71">
          <mxGeometry relative="1" as="geometry"/>
        </mxCell>
        <mxCell id="Uz3SCJ1bhqu5c_YVx1Ex-77" style="edgeStyle=none;rounded=0;orthogonalLoop=1;jettySize=auto;html=1;exitX=0.5;exitY=1;exitDx=0;exitDy=0;entryX=0.5;entryY=0;entryDx=0;entryDy=0;endArrow=block;endFill=1;fontFamily=Times New Roman;" edge="1" parent="1" source="Uz3SCJ1bhqu5c_YVx1Ex-54" target="Uz3SCJ1bhqu5c_YVx1Ex-74">
          <mxGeometry relative="1" as="geometry"/>
        </mxCell>
        <mxCell id="Uz3SCJ1bhqu5c_YVx1Ex-54" value="&lt;font style=&quot;font-size: 15px&quot; face=&quot;Times New Roman&quot;&gt;Start&lt;/font&gt;" style="rounded=1;whiteSpace=wrap;html=1;arcSize=47;strokeWidth=2;fontStyle=1;rotation=0;" vertex="1" parent="1">
          <mxGeometry x="610" y="9.5" width="60" height="30" as="geometry"/>
        </mxCell>
        <mxCell id="Uz3SCJ1bhqu5c_YVx1Ex-68" value="" style="edgeStyle=none;rounded=0;orthogonalLoop=1;jettySize=auto;html=1;endArrow=block;endFill=1;" edge="1" parent="1" source="Uz3SCJ1bhqu5c_YVx1Ex-57" target="Uz3SCJ1bhqu5c_YVx1Ex-63">
          <mxGeometry relative="1" as="geometry"/>
        </mxCell>
        <mxCell id="Uz3SCJ1bhqu5c_YVx1Ex-80" style="edgeStyle=none;rounded=0;orthogonalLoop=1;jettySize=auto;html=1;exitX=0;exitY=0.365;exitDx=0;exitDy=0;exitPerimeter=0;entryX=1;entryY=0.5;entryDx=0;entryDy=0;endArrow=block;endFill=1;fontFamily=Times New Roman;" edge="1" parent="1" source="Uz3SCJ1bhqu5c_YVx1Ex-57" target="Uz3SCJ1bhqu5c_YVx1Ex-72">
          <mxGeometry relative="1" as="geometry"/>
        </mxCell>
        <mxCell id="Uz3SCJ1bhqu5c_YVx1Ex-57" value="&lt;font face=&quot;Times New Roman&quot;&gt;&lt;b&gt;I&lt;sub&gt;1&lt;/sub&gt;&lt;/b&gt;&lt;/font&gt;" style="whiteSpace=wrap;html=1;shape=mxgraph.basic.pentagon;strokeWidth=2;fillColor=#FFFFFF;strokeColor=#82B366;" vertex="1" parent="1">
          <mxGeometry x="690" y="58.5" width="27" height="27" as="geometry"/>
        </mxCell>
        <mxCell id="Uz3SCJ1bhqu5c_YVx1Ex-90" value="" style="edgeStyle=none;rounded=0;orthogonalLoop=1;jettySize=auto;html=1;endArrow=block;endFill=1;fontFamily=Times New Roman;entryX=0.5;entryY=0;entryDx=0;entryDy=0;entryPerimeter=0;" edge="1" parent="1" source="Uz3SCJ1bhqu5c_YVx1Ex-63" target="Uz3SCJ1bhqu5c_YVx1Ex-81">
          <mxGeometry relative="1" as="geometry"/>
        </mxCell>
        <mxCell id="Uz3SCJ1bhqu5c_YVx1Ex-104" style="edgeStyle=none;rounded=0;orthogonalLoop=1;jettySize=auto;html=1;exitX=0;exitY=0.365;exitDx=0;exitDy=0;exitPerimeter=0;entryX=1;entryY=0.5;entryDx=0;entryDy=0;endArrow=block;endFill=1;fontFamily=Times New Roman;" edge="1" parent="1" source="Uz3SCJ1bhqu5c_YVx1Ex-63" target="Uz3SCJ1bhqu5c_YVx1Ex-82">
          <mxGeometry relative="1" as="geometry"/>
        </mxCell>
        <mxCell id="Uz3SCJ1bhqu5c_YVx1Ex-63" value="&lt;b style=&quot;font-family: &amp;#34;times new roman&amp;#34; ; white-space: normal&quot;&gt;I&lt;sub&gt;2&lt;/sub&gt;&lt;/b&gt;" style="whiteSpace=wrap;html=1;shape=mxgraph.basic.pentagon;strokeWidth=2;fillColor=#FFFFFF;strokeColor=#82B366;" vertex="1" parent="1">
          <mxGeometry x="690" y="105.5" width="27" height="27" as="geometry"/>
        </mxCell>
        <mxCell id="Uz3SCJ1bhqu5c_YVx1Ex-69" style="edgeStyle=orthogonalEdgeStyle;rounded=0;orthogonalLoop=1;jettySize=auto;html=1;exitX=0.5;exitY=0;exitDx=0;exitDy=0;exitPerimeter=0;entryX=0.473;entryY=1.072;entryDx=0;entryDy=0;entryPerimeter=0;endArrow=block;endFill=1;fontFamily=Times New Roman;curved=1;" edge="1" parent="1" source="Uz3SCJ1bhqu5c_YVx1Ex-57" target="Uz3SCJ1bhqu5c_YVx1Ex-57">
          <mxGeometry relative="1" as="geometry">
            <Array as="points">
              <mxPoint x="729" y="58.5"/>
              <mxPoint x="729" y="87.5"/>
            </Array>
          </mxGeometry>
        </mxCell>
        <mxCell id="Uz3SCJ1bhqu5c_YVx1Ex-70" style="edgeStyle=none;rounded=0;orthogonalLoop=1;jettySize=auto;html=1;exitX=0.5;exitY=1;exitDx=0;exitDy=0;entryX=0.5;entryY=0;entryDx=0;entryDy=0;endArrow=block;endFill=1;" edge="1" parent="1" source="Uz3SCJ1bhqu5c_YVx1Ex-71" target="Uz3SCJ1bhqu5c_YVx1Ex-72">
          <mxGeometry relative="1" as="geometry"/>
        </mxCell>
        <mxCell id="Uz3SCJ1bhqu5c_YVx1Ex-78" style="edgeStyle=none;rounded=0;orthogonalLoop=1;jettySize=auto;html=1;exitX=0;exitY=0.5;exitDx=0;exitDy=0;entryX=1;entryY=0.5;entryDx=0;entryDy=0;endArrow=block;endFill=1;fontFamily=Times New Roman;" edge="1" parent="1" source="Uz3SCJ1bhqu5c_YVx1Ex-71" target="Uz3SCJ1bhqu5c_YVx1Ex-75">
          <mxGeometry relative="1" as="geometry"/>
        </mxCell>
        <mxCell id="Uz3SCJ1bhqu5c_YVx1Ex-71" value="&lt;font face=&quot;Times New Roman&quot;&gt;M&lt;sub&gt;1&lt;/sub&gt;&lt;/font&gt;" style="rounded=0;whiteSpace=wrap;html=1;fillColor=#FFFFFF;strokeColor=#B85450;strokeWidth=2;fontStyle=1;rotation=0;" vertex="1" parent="1">
          <mxGeometry x="625" y="63" width="30" height="20" as="geometry"/>
        </mxCell>
        <mxCell id="Uz3SCJ1bhqu5c_YVx1Ex-89" style="edgeStyle=none;rounded=0;orthogonalLoop=1;jettySize=auto;html=1;exitX=0.5;exitY=1;exitDx=0;exitDy=0;entryX=0.5;entryY=0;entryDx=0;entryDy=0;endArrow=block;endFill=1;fontFamily=Times New Roman;" edge="1" parent="1" source="Uz3SCJ1bhqu5c_YVx1Ex-72" target="Uz3SCJ1bhqu5c_YVx1Ex-82">
          <mxGeometry relative="1" as="geometry"/>
        </mxCell>
        <mxCell id="Uz3SCJ1bhqu5c_YVx1Ex-106" style="edgeStyle=none;rounded=0;orthogonalLoop=1;jettySize=auto;html=1;exitX=0;exitY=0.5;exitDx=0;exitDy=0;entryX=1;entryY=0.5;entryDx=0;entryDy=0;endArrow=block;endFill=1;fontFamily=Times New Roman;" edge="1" parent="1" source="Uz3SCJ1bhqu5c_YVx1Ex-72" target="Uz3SCJ1bhqu5c_YVx1Ex-83">
          <mxGeometry relative="1" as="geometry"/>
        </mxCell>
        <mxCell id="Uz3SCJ1bhqu5c_YVx1Ex-72" value="&lt;font face=&quot;Times New Roman&quot;&gt;M&lt;sub&gt;2&lt;/sub&gt;&lt;/font&gt;" style="rounded=0;whiteSpace=wrap;html=1;fillColor=#FFFFFF;strokeColor=#B85450;strokeWidth=2;fontStyle=1;rotation=0;" vertex="1" parent="1">
          <mxGeometry x="625" y="109" width="30" height="20" as="geometry"/>
        </mxCell>
        <mxCell id="Uz3SCJ1bhqu5c_YVx1Ex-73" style="edgeStyle=none;rounded=0;orthogonalLoop=1;jettySize=auto;html=1;exitX=0.5;exitY=1;exitDx=0;exitDy=0;endArrow=block;endFill=1;" edge="1" parent="1" source="Uz3SCJ1bhqu5c_YVx1Ex-74" target="Uz3SCJ1bhqu5c_YVx1Ex-75">
          <mxGeometry relative="1" as="geometry"/>
        </mxCell>
        <mxCell id="Uz3SCJ1bhqu5c_YVx1Ex-79" style="edgeStyle=none;rounded=0;orthogonalLoop=1;jettySize=auto;html=1;exitX=1;exitY=0.5;exitDx=0;exitDy=0;entryX=0;entryY=0.5;entryDx=0;entryDy=0;endArrow=block;endFill=1;fontFamily=Times New Roman;" edge="1" parent="1" source="Uz3SCJ1bhqu5c_YVx1Ex-74" target="Uz3SCJ1bhqu5c_YVx1Ex-72">
          <mxGeometry relative="1" as="geometry"/>
        </mxCell>
        <mxCell id="Uz3SCJ1bhqu5c_YVx1Ex-74" value="&lt;b&gt;D&lt;sub&gt;1&lt;/sub&gt;&lt;/b&gt;" style="ellipse;whiteSpace=wrap;html=1;aspect=fixed;strokeWidth=2;fillColor=#FFFFFF;strokeColor=#82b366;fontFamily=Times New Roman;" vertex="1" parent="1">
          <mxGeometry x="560" y="60.5" width="27" height="27" as="geometry"/>
        </mxCell>
        <mxCell id="Uz3SCJ1bhqu5c_YVx1Ex-88" style="edgeStyle=none;rounded=0;orthogonalLoop=1;jettySize=auto;html=1;exitX=0.5;exitY=1;exitDx=0;exitDy=0;entryX=0.5;entryY=0;entryDx=0;entryDy=0;endArrow=block;endFill=1;fontFamily=Times New Roman;" edge="1" parent="1" source="Uz3SCJ1bhqu5c_YVx1Ex-75" target="Uz3SCJ1bhqu5c_YVx1Ex-83">
          <mxGeometry relative="1" as="geometry"/>
        </mxCell>
        <mxCell id="Uz3SCJ1bhqu5c_YVx1Ex-103" style="edgeStyle=none;rounded=0;orthogonalLoop=1;jettySize=auto;html=1;exitX=1;exitY=0.5;exitDx=0;exitDy=0;entryX=0;entryY=0.5;entryDx=0;entryDy=0;endArrow=block;endFill=1;fontFamily=Times New Roman;" edge="1" parent="1" source="Uz3SCJ1bhqu5c_YVx1Ex-75" target="Uz3SCJ1bhqu5c_YVx1Ex-82">
          <mxGeometry relative="1" as="geometry"/>
        </mxCell>
        <mxCell id="Uz3SCJ1bhqu5c_YVx1Ex-75" value="&lt;b style=&quot;font-family: &amp;#34;times new roman&amp;#34; ; white-space: normal&quot;&gt;D&lt;sub&gt;2&lt;/sub&gt;&lt;/b&gt;" style="ellipse;whiteSpace=wrap;html=1;aspect=fixed;strokeWidth=2;fillColor=#FFFFFF;strokeColor=#82b366;" vertex="1" parent="1">
          <mxGeometry x="560" y="107.5" width="27" height="27" as="geometry"/>
        </mxCell>
        <mxCell id="Uz3SCJ1bhqu5c_YVx1Ex-92" value="" style="edgeStyle=none;rounded=0;orthogonalLoop=1;jettySize=auto;html=1;endArrow=block;endFill=1;fontFamily=Times New Roman;entryX=0.5;entryY=0;entryDx=0;entryDy=0;entryPerimeter=0;" edge="1" parent="1" source="Uz3SCJ1bhqu5c_YVx1Ex-81" target="Uz3SCJ1bhqu5c_YVx1Ex-84">
          <mxGeometry relative="1" as="geometry">
            <mxPoint x="703.4999999999998" y="260" as="targetPoint"/>
          </mxGeometry>
        </mxCell>
        <mxCell id="Uz3SCJ1bhqu5c_YVx1Ex-105" style="edgeStyle=none;rounded=0;orthogonalLoop=1;jettySize=auto;html=1;exitX=0;exitY=0.365;exitDx=0;exitDy=0;exitPerimeter=0;entryX=1;entryY=0.5;entryDx=0;entryDy=0;endArrow=block;endFill=1;fontFamily=Times New Roman;" edge="1" parent="1" source="Uz3SCJ1bhqu5c_YVx1Ex-81" target="Uz3SCJ1bhqu5c_YVx1Ex-85">
          <mxGeometry relative="1" as="geometry"/>
        </mxCell>
        <mxCell id="Uz3SCJ1bhqu5c_YVx1Ex-81" value="&lt;b style=&quot;font-family: &amp;#34;times new roman&amp;#34; ; white-space: normal&quot;&gt;I&lt;sub&gt;3&lt;/sub&gt;&lt;/b&gt;" style="whiteSpace=wrap;html=1;shape=mxgraph.basic.pentagon;strokeWidth=2;fillColor=#FFFFFF;strokeColor=#82B366;" vertex="1" parent="1">
          <mxGeometry x="690" y="153" width="27" height="27" as="geometry"/>
        </mxCell>
        <mxCell id="Uz3SCJ1bhqu5c_YVx1Ex-94" style="edgeStyle=none;rounded=0;orthogonalLoop=1;jettySize=auto;html=1;exitX=0.5;exitY=1;exitDx=0;exitDy=0;entryX=0.5;entryY=0;entryDx=0;entryDy=0;endArrow=block;endFill=1;fontFamily=Times New Roman;" edge="1" parent="1" source="Uz3SCJ1bhqu5c_YVx1Ex-82" target="Uz3SCJ1bhqu5c_YVx1Ex-85">
          <mxGeometry relative="1" as="geometry"/>
        </mxCell>
        <mxCell id="Uz3SCJ1bhqu5c_YVx1Ex-107" style="edgeStyle=none;rounded=0;orthogonalLoop=1;jettySize=auto;html=1;exitX=0;exitY=0.5;exitDx=0;exitDy=0;entryX=1;entryY=0.5;entryDx=0;entryDy=0;endArrow=block;endFill=1;fontFamily=Times New Roman;" edge="1" parent="1" source="Uz3SCJ1bhqu5c_YVx1Ex-82" target="Uz3SCJ1bhqu5c_YVx1Ex-86">
          <mxGeometry relative="1" as="geometry"/>
        </mxCell>
        <mxCell id="Uz3SCJ1bhqu5c_YVx1Ex-82" value="&lt;font face=&quot;Times New Roman&quot;&gt;M&lt;sub&gt;3&lt;/sub&gt;&lt;/font&gt;" style="rounded=0;whiteSpace=wrap;html=1;fillColor=#FFFFFF;strokeColor=#B85450;strokeWidth=2;fontStyle=1;rotation=0;" vertex="1" parent="1">
          <mxGeometry x="625" y="156" width="30" height="20" as="geometry"/>
        </mxCell>
        <mxCell id="Uz3SCJ1bhqu5c_YVx1Ex-93" style="edgeStyle=none;rounded=0;orthogonalLoop=1;jettySize=auto;html=1;exitX=0.5;exitY=1;exitDx=0;exitDy=0;entryX=0.5;entryY=0;entryDx=0;entryDy=0;endArrow=block;endFill=1;fontFamily=Times New Roman;" edge="1" parent="1" source="Uz3SCJ1bhqu5c_YVx1Ex-83" target="Uz3SCJ1bhqu5c_YVx1Ex-86">
          <mxGeometry relative="1" as="geometry"/>
        </mxCell>
        <mxCell id="Uz3SCJ1bhqu5c_YVx1Ex-108" style="edgeStyle=none;rounded=0;orthogonalLoop=1;jettySize=auto;html=1;exitX=1;exitY=0.5;exitDx=0;exitDy=0;entryX=0;entryY=0.5;entryDx=0;entryDy=0;endArrow=block;endFill=1;fontFamily=Times New Roman;" edge="1" parent="1" source="Uz3SCJ1bhqu5c_YVx1Ex-83" target="Uz3SCJ1bhqu5c_YVx1Ex-85">
          <mxGeometry relative="1" as="geometry"/>
        </mxCell>
        <mxCell id="Uz3SCJ1bhqu5c_YVx1Ex-83" value="&lt;b style=&quot;font-family: &amp;#34;times new roman&amp;#34; ; white-space: normal&quot;&gt;D&lt;sub&gt;3&lt;/sub&gt;&lt;/b&gt;" style="ellipse;whiteSpace=wrap;html=1;aspect=fixed;strokeWidth=2;fillColor=#FFFFFF;strokeColor=#82b366;" vertex="1" parent="1">
          <mxGeometry x="560" y="155" width="27" height="27" as="geometry"/>
        </mxCell>
        <mxCell id="Uz3SCJ1bhqu5c_YVx1Ex-337" value="" style="edgeStyle=none;rounded=0;orthogonalLoop=1;jettySize=auto;html=1;endArrow=block;endFill=1;strokeWidth=1;fontFamily=Times New Roman;entryX=0.5;entryY=0;entryDx=0;entryDy=0;entryPerimeter=0;" edge="1" parent="1" source="Uz3SCJ1bhqu5c_YVx1Ex-84" target="Uz3SCJ1bhqu5c_YVx1Ex-331">
          <mxGeometry relative="1" as="geometry">
            <mxPoint x="703.5000000000002" y="307" as="targetPoint"/>
          </mxGeometry>
        </mxCell>
        <mxCell id="Uz3SCJ1bhqu5c_YVx1Ex-343" style="edgeStyle=none;rounded=0;orthogonalLoop=1;jettySize=auto;html=1;exitX=0;exitY=0.365;exitDx=0;exitDy=0;exitPerimeter=0;entryX=1;entryY=0.5;entryDx=0;entryDy=0;endArrow=block;endFill=1;strokeWidth=1;fontFamily=Times New Roman;" edge="1" parent="1" source="Uz3SCJ1bhqu5c_YVx1Ex-84" target="Uz3SCJ1bhqu5c_YVx1Ex-332">
          <mxGeometry relative="1" as="geometry"/>
        </mxCell>
        <mxCell id="Uz3SCJ1bhqu5c_YVx1Ex-84" value="&lt;b style=&quot;font-family: &amp;#34;times new roman&amp;#34; ; white-space: normal&quot;&gt;I&lt;sub&gt;4&lt;/sub&gt;&lt;/b&gt;" style="whiteSpace=wrap;html=1;shape=mxgraph.basic.pentagon;strokeWidth=2;fillColor=#FFFFFF;strokeColor=#82B366;" vertex="1" parent="1">
          <mxGeometry x="690" y="200" width="27" height="27" as="geometry"/>
        </mxCell>
        <mxCell id="Uz3SCJ1bhqu5c_YVx1Ex-334" style="edgeStyle=none;rounded=0;orthogonalLoop=1;jettySize=auto;html=1;exitX=0.5;exitY=1;exitDx=0;exitDy=0;entryX=0.5;entryY=0;entryDx=0;entryDy=0;endArrow=block;endFill=1;strokeWidth=1;fontFamily=Times New Roman;" edge="1" parent="1" source="Uz3SCJ1bhqu5c_YVx1Ex-85" target="Uz3SCJ1bhqu5c_YVx1Ex-332">
          <mxGeometry relative="1" as="geometry"/>
        </mxCell>
        <mxCell id="Uz3SCJ1bhqu5c_YVx1Ex-345" style="edgeStyle=none;rounded=0;orthogonalLoop=1;jettySize=auto;html=1;exitX=0;exitY=0.5;exitDx=0;exitDy=0;entryX=1;entryY=0.5;entryDx=0;entryDy=0;endArrow=block;endFill=1;strokeWidth=1;fontFamily=Times New Roman;" edge="1" parent="1" source="Uz3SCJ1bhqu5c_YVx1Ex-85" target="Uz3SCJ1bhqu5c_YVx1Ex-333">
          <mxGeometry relative="1" as="geometry"/>
        </mxCell>
        <mxCell id="Uz3SCJ1bhqu5c_YVx1Ex-85" value="&lt;font face=&quot;Times New Roman&quot;&gt;M&lt;sub&gt;4&lt;/sub&gt;&lt;/font&gt;" style="rounded=0;whiteSpace=wrap;html=1;fillColor=#FFFFFF;strokeColor=#B85450;strokeWidth=2;fontStyle=1;rotation=0;" vertex="1" parent="1">
          <mxGeometry x="625" y="203" width="30" height="20" as="geometry"/>
        </mxCell>
        <mxCell id="Uz3SCJ1bhqu5c_YVx1Ex-335" style="edgeStyle=none;rounded=0;orthogonalLoop=1;jettySize=auto;html=1;exitX=0.5;exitY=1;exitDx=0;exitDy=0;endArrow=block;endFill=1;strokeWidth=1;fontFamily=Times New Roman;" edge="1" parent="1" source="Uz3SCJ1bhqu5c_YVx1Ex-86" target="Uz3SCJ1bhqu5c_YVx1Ex-333">
          <mxGeometry relative="1" as="geometry"/>
        </mxCell>
        <mxCell id="Uz3SCJ1bhqu5c_YVx1Ex-346" style="edgeStyle=none;rounded=0;orthogonalLoop=1;jettySize=auto;html=1;exitX=1;exitY=0.5;exitDx=0;exitDy=0;entryX=0;entryY=0.5;entryDx=0;entryDy=0;endArrow=block;endFill=1;strokeWidth=1;fontFamily=Times New Roman;" edge="1" parent="1" source="Uz3SCJ1bhqu5c_YVx1Ex-86" target="Uz3SCJ1bhqu5c_YVx1Ex-332">
          <mxGeometry relative="1" as="geometry"/>
        </mxCell>
        <mxCell id="Uz3SCJ1bhqu5c_YVx1Ex-86" value="&lt;b style=&quot;font-family: &amp;#34;times new roman&amp;#34; ; white-space: normal&quot;&gt;D&lt;sub&gt;4&lt;/sub&gt;&lt;/b&gt;" style="ellipse;whiteSpace=wrap;html=1;aspect=fixed;strokeWidth=2;fillColor=#FFFFFF;strokeColor=#82b366;" vertex="1" parent="1">
          <mxGeometry x="560" y="202.5" width="27" height="27" as="geometry"/>
        </mxCell>
        <mxCell id="Uz3SCJ1bhqu5c_YVx1Ex-97" style="edgeStyle=orthogonalEdgeStyle;rounded=0;orthogonalLoop=1;jettySize=auto;html=1;exitX=0.5;exitY=0;exitDx=0;exitDy=0;exitPerimeter=0;entryX=0.473;entryY=1.072;entryDx=0;entryDy=0;entryPerimeter=0;endArrow=block;endFill=1;fontFamily=Times New Roman;curved=1;" edge="1" parent="1">
          <mxGeometry relative="1" as="geometry">
            <mxPoint x="703.6666666666667" y="104.5" as="sourcePoint"/>
            <mxPoint x="703.6666666666667" y="133.66666666666674" as="targetPoint"/>
            <Array as="points">
              <mxPoint x="729.5" y="104.5"/>
              <mxPoint x="729.5" y="133.5"/>
            </Array>
          </mxGeometry>
        </mxCell>
        <mxCell id="Uz3SCJ1bhqu5c_YVx1Ex-98" style="edgeStyle=orthogonalEdgeStyle;rounded=0;orthogonalLoop=1;jettySize=auto;html=1;exitX=0.5;exitY=0;exitDx=0;exitDy=0;exitPerimeter=0;entryX=0.473;entryY=1.072;entryDx=0;entryDy=0;entryPerimeter=0;endArrow=block;endFill=1;fontFamily=Times New Roman;curved=1;" edge="1" parent="1">
          <mxGeometry relative="1" as="geometry">
            <mxPoint x="703.6666666666667" y="151.5" as="sourcePoint"/>
            <mxPoint x="703.6666666666667" y="180.66666666666674" as="targetPoint"/>
            <Array as="points">
              <mxPoint x="729.5" y="151.5"/>
              <mxPoint x="729.5" y="180.5"/>
            </Array>
          </mxGeometry>
        </mxCell>
        <mxCell id="Uz3SCJ1bhqu5c_YVx1Ex-99" style="edgeStyle=orthogonalEdgeStyle;rounded=0;orthogonalLoop=1;jettySize=auto;html=1;exitX=0.5;exitY=0;exitDx=0;exitDy=0;exitPerimeter=0;entryX=0.473;entryY=1.072;entryDx=0;entryDy=0;entryPerimeter=0;endArrow=block;endFill=1;fontFamily=Times New Roman;curved=1;" edge="1" parent="1">
          <mxGeometry relative="1" as="geometry">
            <mxPoint x="702.6666666666667" y="199.5" as="sourcePoint"/>
            <mxPoint x="702.6666666666667" y="228.66666666666674" as="targetPoint"/>
            <Array as="points">
              <mxPoint x="728.5" y="199.5"/>
              <mxPoint x="728.5" y="228.5"/>
            </Array>
          </mxGeometry>
        </mxCell>
        <mxCell id="Uz3SCJ1bhqu5c_YVx1Ex-109" value="" style="rounded=0;whiteSpace=wrap;html=1;fillColor=#ffe6cc;strokeColor=#d79b00;rotation=-90;strokeWidth=2;" vertex="1" parent="1">
          <mxGeometry x="-450" y="660" width="151" height="10" as="geometry"/>
        </mxCell>
        <mxCell id="Uz3SCJ1bhqu5c_YVx1Ex-110" value="" style="rounded=0;whiteSpace=wrap;html=1;fillColor=#ffe6cc;strokeColor=#d79b00;rotation=-90;strokeWidth=2;" vertex="1" parent="1">
          <mxGeometry x="-420" y="660" width="151" height="10" as="geometry"/>
        </mxCell>
        <mxCell id="Uz3SCJ1bhqu5c_YVx1Ex-111" value="" style="rounded=0;whiteSpace=wrap;html=1;fillColor=#ffe6cc;strokeColor=#d79b00;rotation=-90;strokeWidth=2;" vertex="1" parent="1">
          <mxGeometry x="-390" y="660" width="151" height="10" as="geometry"/>
        </mxCell>
        <mxCell id="Uz3SCJ1bhqu5c_YVx1Ex-112" value="" style="rounded=0;whiteSpace=wrap;html=1;fillColor=#ffe6cc;strokeColor=#d79b00;rotation=-90;strokeWidth=2;" vertex="1" parent="1">
          <mxGeometry x="-359" y="660" width="151" height="10" as="geometry"/>
        </mxCell>
        <mxCell id="Uz3SCJ1bhqu5c_YVx1Ex-113" value="" style="rounded=0;whiteSpace=wrap;html=1;fillColor=#ffe6cc;strokeColor=#d79b00;rotation=-90;strokeWidth=2;" vertex="1" parent="1">
          <mxGeometry x="-330" y="660" width="151" height="10" as="geometry"/>
        </mxCell>
        <mxCell id="Uz3SCJ1bhqu5c_YVx1Ex-114" value="" style="endArrow=none;html=1;strokeWidth=2;" edge="1" parent="1">
          <mxGeometry width="50" height="50" relative="1" as="geometry">
            <mxPoint x="-231" y="605" as="sourcePoint"/>
            <mxPoint x="-401" y="605" as="targetPoint"/>
          </mxGeometry>
        </mxCell>
        <mxCell id="Uz3SCJ1bhqu5c_YVx1Ex-115" value="" style="endArrow=none;html=1;strokeWidth=2;" edge="1" parent="1">
          <mxGeometry width="50" height="50" relative="1" as="geometry">
            <mxPoint x="-231" y="644" as="sourcePoint"/>
            <mxPoint x="-401" y="644" as="targetPoint"/>
          </mxGeometry>
        </mxCell>
        <mxCell id="Uz3SCJ1bhqu5c_YVx1Ex-116" value="" style="endArrow=none;html=1;strokeWidth=2;" edge="1" parent="1">
          <mxGeometry width="50" height="50" relative="1" as="geometry">
            <mxPoint x="-231" y="683" as="sourcePoint"/>
            <mxPoint x="-401" y="683" as="targetPoint"/>
          </mxGeometry>
        </mxCell>
        <mxCell id="Uz3SCJ1bhqu5c_YVx1Ex-117" value="" style="endArrow=none;html=1;strokeWidth=2;" edge="1" parent="1">
          <mxGeometry width="50" height="50" relative="1" as="geometry">
            <mxPoint x="-231" y="722" as="sourcePoint"/>
            <mxPoint x="-401" y="722" as="targetPoint"/>
          </mxGeometry>
        </mxCell>
        <mxCell id="BSNSr3al7UwsHHKzE54c-8" value="" style="rounded=0;whiteSpace=wrap;html=1;fillColor=#ffe6cc;strokeColor=#d79b00;rotation=0;strokeWidth=2;" parent="1" vertex="1">
          <mxGeometry x="57.5" y="55" width="151" height="10" as="geometry"/>
        </mxCell>
        <mxCell id="BSNSr3al7UwsHHKzE54c-9" value="" style="rounded=0;whiteSpace=wrap;html=1;fillColor=#ffe6cc;strokeColor=#d79b00;rotation=0;strokeWidth=2;" parent="1" vertex="1">
          <mxGeometry x="57.5" y="102.5" width="151" height="10" as="geometry"/>
        </mxCell>
        <mxCell id="BSNSr3al7UwsHHKzE54c-10" value="" style="rounded=0;whiteSpace=wrap;html=1;fillColor=#ffe6cc;strokeColor=#d79b00;rotation=0;strokeWidth=2;" parent="1" vertex="1">
          <mxGeometry x="57.5" y="152.5" width="151" height="10" as="geometry"/>
        </mxCell>
        <mxCell id="BSNSr3al7UwsHHKzE54c-11" value="" style="rounded=0;whiteSpace=wrap;html=1;fillColor=#ffe6cc;strokeColor=#d79b00;rotation=0;strokeWidth=2;" parent="1" vertex="1">
          <mxGeometry x="57.5" y="203" width="151" height="10" as="geometry"/>
        </mxCell>
        <mxCell id="Uz3SCJ1bhqu5c_YVx1Ex-163" value="" style="rounded=0;whiteSpace=wrap;html=1;fillColor=#ffe6cc;strokeColor=#d79b00;rotation=0;strokeWidth=2;" vertex="1" parent="1">
          <mxGeometry x="57.5" y="255.5" width="151" height="10" as="geometry"/>
        </mxCell>
        <mxCell id="Uz3SCJ1bhqu5c_YVx1Ex-305" value="" style="rounded=0;whiteSpace=wrap;html=1;fillColor=#d5e8d4;strokeColor=#82b366;rotation=-90;strokeWidth=2;" vertex="1" parent="1">
          <mxGeometry x="327" y="292.5" width="20" height="5" as="geometry"/>
        </mxCell>
        <mxCell id="Uz3SCJ1bhqu5c_YVx1Ex-306" value="" style="rounded=0;whiteSpace=wrap;html=1;fillColor=#d5e8d4;strokeColor=#82b366;rotation=-90;strokeWidth=2;" vertex="1" parent="1">
          <mxGeometry x="270.5" y="295.5" width="14" height="5" as="geometry"/>
        </mxCell>
        <mxCell id="Uz3SCJ1bhqu5c_YVx1Ex-307" value="" style="rounded=0;whiteSpace=wrap;html=1;fillColor=#d5e8d4;strokeColor=#82b366;rotation=-90;strokeWidth=2;" vertex="1" parent="1">
          <mxGeometry x="374" y="289.5" width="26" height="5" as="geometry"/>
        </mxCell>
        <mxCell id="Uz3SCJ1bhqu5c_YVx1Ex-308" value="" style="rounded=0;whiteSpace=wrap;html=1;fillColor=#d5e8d4;strokeColor=#82b366;rotation=-90;strokeWidth=2;" vertex="1" parent="1">
          <mxGeometry x="317.5" y="299.5" width="6" height="5" as="geometry"/>
        </mxCell>
        <mxCell id="Uz3SCJ1bhqu5c_YVx1Ex-309" value="" style="rounded=0;whiteSpace=wrap;html=1;fillColor=#d5e8d4;strokeColor=#82b366;rotation=-90;strokeWidth=2;" vertex="1" parent="1">
          <mxGeometry x="319.5" y="295.5" width="14" height="5" as="geometry"/>
        </mxCell>
        <mxCell id="Uz3SCJ1bhqu5c_YVx1Ex-310" value="" style="rounded=0;whiteSpace=wrap;html=1;fillColor=#d5e8d4;strokeColor=#82b366;rotation=-90;strokeWidth=2;" vertex="1" parent="1">
          <mxGeometry x="372" y="292.5" width="20" height="5" as="geometry"/>
        </mxCell>
        <mxCell id="Uz3SCJ1bhqu5c_YVx1Ex-311" value="" style="rounded=0;whiteSpace=wrap;html=1;fillColor=#d5e8d4;strokeColor=#82b366;rotation=-90;strokeWidth=2;" vertex="1" parent="1">
          <mxGeometry x="338.5" y="294.5" width="16" height="5" as="geometry"/>
        </mxCell>
        <mxCell id="Uz3SCJ1bhqu5c_YVx1Ex-312" value="" style="rounded=0;whiteSpace=wrap;html=1;fillColor=#d5e8d4;strokeColor=#82b366;rotation=-90;strokeWidth=2;" vertex="1" parent="1">
          <mxGeometry x="295.5" y="292.5" width="20" height="5" as="geometry"/>
        </mxCell>
        <mxCell id="Uz3SCJ1bhqu5c_YVx1Ex-313" value="" style="rounded=0;whiteSpace=wrap;html=1;fillColor=#d5e8d4;strokeColor=#82b366;rotation=-90;strokeWidth=2;" vertex="1" parent="1">
          <mxGeometry x="303.5" y="295.5" width="14" height="5" as="geometry"/>
        </mxCell>
        <mxCell id="Uz3SCJ1bhqu5c_YVx1Ex-314" value="" style="rounded=0;whiteSpace=wrap;html=1;fillColor=#d5e8d4;strokeColor=#82b366;rotation=-90;strokeWidth=2;" vertex="1" parent="1">
          <mxGeometry x="346" y="286.5" width="32" height="5" as="geometry"/>
        </mxCell>
        <mxCell id="Uz3SCJ1bhqu5c_YVx1Ex-315" value="" style="rounded=0;whiteSpace=wrap;html=1;fillColor=#d5e8d4;strokeColor=#82b366;rotation=-90;strokeWidth=2;" vertex="1" parent="1">
          <mxGeometry x="296.5" y="299.5" width="6" height="5" as="geometry"/>
        </mxCell>
        <mxCell id="Uz3SCJ1bhqu5c_YVx1Ex-316" value="" style="rounded=0;whiteSpace=wrap;html=1;fillColor=#d5e8d4;strokeColor=#82b366;rotation=-90;strokeWidth=2;" vertex="1" parent="1">
          <mxGeometry x="386" y="295.5" width="14" height="5" as="geometry"/>
        </mxCell>
        <mxCell id="Uz3SCJ1bhqu5c_YVx1Ex-317" value="" style="rounded=0;whiteSpace=wrap;html=1;fillColor=#d5e8d4;strokeColor=#82b366;rotation=-90;strokeWidth=2;" vertex="1" parent="1">
          <mxGeometry x="362" y="292.5" width="20" height="5" as="geometry"/>
        </mxCell>
        <mxCell id="Uz3SCJ1bhqu5c_YVx1Ex-318" value="" style="rounded=0;whiteSpace=wrap;html=1;fillColor=#d5e8d4;strokeColor=#82b366;rotation=-90;strokeWidth=2;" vertex="1" parent="1">
          <mxGeometry x="263.5" y="283.5" width="38" height="5" as="geometry"/>
        </mxCell>
        <mxCell id="Uz3SCJ1bhqu5c_YVx1Ex-319" value="" style="rounded=0;whiteSpace=wrap;html=1;fillColor=#d5e8d4;strokeColor=#82b366;rotation=-90;strokeWidth=2;" vertex="1" parent="1">
          <mxGeometry x="369" y="294.5" width="16" height="5" as="geometry"/>
        </mxCell>
        <mxCell id="Uz3SCJ1bhqu5c_YVx1Ex-320" value="" style="rounded=0;whiteSpace=wrap;html=1;fillColor=#d5e8d4;strokeColor=#82b366;rotation=-90;strokeWidth=2;" vertex="1" parent="1">
          <mxGeometry x="324.5" y="295.5" width="14" height="5" as="geometry"/>
        </mxCell>
        <mxCell id="Uz3SCJ1bhqu5c_YVx1Ex-321" value="" style="rounded=0;whiteSpace=wrap;html=1;fillColor=#d5e8d4;strokeColor=#82b366;rotation=-90;strokeWidth=2;" vertex="1" parent="1">
          <mxGeometry x="342" y="292.5" width="20" height="5" as="geometry"/>
        </mxCell>
        <mxCell id="Uz3SCJ1bhqu5c_YVx1Ex-322" value="" style="rounded=0;whiteSpace=wrap;html=1;fillColor=#d5e8d4;strokeColor=#82b366;rotation=-90;strokeWidth=2;" vertex="1" parent="1">
          <mxGeometry x="323" y="283.5" width="38" height="5" as="geometry"/>
        </mxCell>
        <mxCell id="Uz3SCJ1bhqu5c_YVx1Ex-323" value="" style="rounded=0;whiteSpace=wrap;html=1;fillColor=#d5e8d4;strokeColor=#82b366;rotation=-90;strokeWidth=2;" vertex="1" parent="1">
          <mxGeometry x="280.5" y="294.5" width="16" height="5" as="geometry"/>
        </mxCell>
        <mxCell id="Uz3SCJ1bhqu5c_YVx1Ex-324" value="" style="rounded=0;whiteSpace=wrap;html=1;fillColor=#d5e8d4;strokeColor=#82b366;rotation=-90;strokeWidth=2;" vertex="1" parent="1">
          <mxGeometry x="308.5" y="295.5" width="14" height="5" as="geometry"/>
        </mxCell>
        <mxCell id="Uz3SCJ1bhqu5c_YVx1Ex-325" value="" style="rounded=0;whiteSpace=wrap;html=1;fillColor=#d5e8d4;strokeColor=#82b366;rotation=-90;strokeWidth=2;" vertex="1" parent="1">
          <mxGeometry x="364" y="299.5" width="6" height="5" as="geometry"/>
        </mxCell>
        <mxCell id="Uz3SCJ1bhqu5c_YVx1Ex-326" value="" style="rounded=0;whiteSpace=wrap;html=1;fillColor=#d5e8d4;strokeColor=#82b366;rotation=-90;strokeWidth=2;" vertex="1" parent="1">
          <mxGeometry x="347" y="292.5" width="20" height="5" as="geometry"/>
        </mxCell>
        <mxCell id="Uz3SCJ1bhqu5c_YVx1Ex-327" value="" style="rounded=0;whiteSpace=wrap;html=1;fillColor=#f8cecc;strokeColor=#b85450;rotation=-90;strokeWidth=2;" vertex="1" parent="1">
          <mxGeometry x="267" y="275.5" width="54" height="5" as="geometry"/>
        </mxCell>
        <mxCell id="Uz3SCJ1bhqu5c_YVx1Ex-330" style="edgeStyle=none;rounded=0;orthogonalLoop=1;jettySize=auto;html=1;exitX=0.5;exitY=1;exitDx=0;exitDy=0;entryX=0.5;entryY=0;entryDx=0;entryDy=0;endArrow=block;endFill=1;strokeWidth=1;fontFamily=Times New Roman;" edge="1" parent="1" source="Uz3SCJ1bhqu5c_YVx1Ex-328" target="Uz3SCJ1bhqu5c_YVx1Ex-329">
          <mxGeometry relative="1" as="geometry"/>
        </mxCell>
        <mxCell id="Uz3SCJ1bhqu5c_YVx1Ex-328" value="&lt;font face=&quot;Times New Roman&quot;&gt;M&lt;span style=&quot;font-size: 10px&quot;&gt;&lt;sub&gt;5&lt;/sub&gt;&lt;/span&gt;&lt;/font&gt;" style="rounded=0;whiteSpace=wrap;html=1;fillColor=#FFFFFF;strokeColor=#B85450;strokeWidth=2;fontStyle=1" vertex="1" parent="1">
          <mxGeometry x="455" y="235.5" width="30" height="20" as="geometry"/>
        </mxCell>
        <mxCell id="Uz3SCJ1bhqu5c_YVx1Ex-329" value="&lt;font style=&quot;font-size: 15px&quot; face=&quot;Times New Roman&quot;&gt;End&lt;/font&gt;" style="rounded=1;whiteSpace=wrap;html=1;arcSize=47;strokeWidth=2;fontStyle=1" vertex="1" parent="1">
          <mxGeometry x="440" y="278" width="60" height="30" as="geometry"/>
        </mxCell>
        <mxCell id="Uz3SCJ1bhqu5c_YVx1Ex-342" value="" style="edgeStyle=none;rounded=0;orthogonalLoop=1;jettySize=auto;html=1;endArrow=block;endFill=1;strokeWidth=1;fontFamily=Times New Roman;entryX=0.5;entryY=0;entryDx=0;entryDy=0;" edge="1" parent="1" target="Uz3SCJ1bhqu5c_YVx1Ex-338">
          <mxGeometry relative="1" as="geometry">
            <mxPoint x="704" y="270" as="sourcePoint"/>
          </mxGeometry>
        </mxCell>
        <mxCell id="Uz3SCJ1bhqu5c_YVx1Ex-331" value="&lt;b style=&quot;font-family: &amp;#34;times new roman&amp;#34; ; white-space: normal&quot;&gt;I&lt;sub&gt;5&lt;/sub&gt;&lt;/b&gt;" style="whiteSpace=wrap;html=1;shape=mxgraph.basic.pentagon;strokeWidth=2;fillColor=#FFFFFF;strokeColor=#82B366;" vertex="1" parent="1">
          <mxGeometry x="690.5" y="243" width="27" height="27" as="geometry"/>
        </mxCell>
        <mxCell id="Uz3SCJ1bhqu5c_YVx1Ex-340" style="edgeStyle=none;rounded=0;orthogonalLoop=1;jettySize=auto;html=1;exitX=0.5;exitY=1;exitDx=0;exitDy=0;endArrow=block;endFill=1;strokeWidth=1;fontFamily=Times New Roman;" edge="1" parent="1" source="Uz3SCJ1bhqu5c_YVx1Ex-332">
          <mxGeometry relative="1" as="geometry">
            <mxPoint x="640.7142857142858" y="290" as="targetPoint"/>
          </mxGeometry>
        </mxCell>
        <mxCell id="Uz3SCJ1bhqu5c_YVx1Ex-332" value="&lt;font face=&quot;Times New Roman&quot;&gt;M&lt;sub&gt;5&lt;/sub&gt;&lt;/font&gt;" style="rounded=0;whiteSpace=wrap;html=1;fillColor=#FFFFFF;strokeColor=#B85450;strokeWidth=2;fontStyle=1;rotation=0;" vertex="1" parent="1">
          <mxGeometry x="625.5" y="246" width="30" height="20" as="geometry"/>
        </mxCell>
        <mxCell id="Uz3SCJ1bhqu5c_YVx1Ex-339" style="edgeStyle=none;rounded=0;orthogonalLoop=1;jettySize=auto;html=1;exitX=0.5;exitY=1;exitDx=0;exitDy=0;entryX=0.5;entryY=0;entryDx=0;entryDy=0;endArrow=block;endFill=1;strokeWidth=1;fontFamily=Times New Roman;" edge="1" parent="1" source="Uz3SCJ1bhqu5c_YVx1Ex-333" target="Uz3SCJ1bhqu5c_YVx1Ex-338">
          <mxGeometry relative="1" as="geometry"/>
        </mxCell>
        <mxCell id="Uz3SCJ1bhqu5c_YVx1Ex-333" value="&lt;b style=&quot;font-family: &amp;#34;times new roman&amp;#34; ; white-space: normal&quot;&gt;D&lt;sub&gt;5&lt;/sub&gt;&lt;/b&gt;" style="ellipse;whiteSpace=wrap;html=1;aspect=fixed;strokeWidth=2;fillColor=#FFFFFF;strokeColor=#82b366;" vertex="1" parent="1">
          <mxGeometry x="560.5" y="245.5" width="27" height="27" as="geometry"/>
        </mxCell>
        <mxCell id="Uz3SCJ1bhqu5c_YVx1Ex-338" value="&lt;font style=&quot;font-size: 15px&quot; face=&quot;Times New Roman&quot;&gt;End&lt;/font&gt;" style="rounded=1;whiteSpace=wrap;html=1;arcSize=47;strokeWidth=2;fontStyle=1" vertex="1" parent="1">
          <mxGeometry x="610" y="288" width="60" height="30" as="geometry"/>
        </mxCell>
        <mxCell id="Uz3SCJ1bhqu5c_YVx1Ex-344" style="edgeStyle=orthogonalEdgeStyle;rounded=0;orthogonalLoop=1;jettySize=auto;html=1;exitX=0.5;exitY=0;exitDx=0;exitDy=0;exitPerimeter=0;entryX=0.473;entryY=1.072;entryDx=0;entryDy=0;entryPerimeter=0;endArrow=block;endFill=1;fontFamily=Times New Roman;curved=1;" edge="1" parent="1">
          <mxGeometry relative="1" as="geometry">
            <mxPoint x="703.4285714285716" y="242.78571428571433" as="sourcePoint"/>
            <mxPoint x="703.4285714285716" y="271.92857142857144" as="targetPoint"/>
            <Array as="points">
              <mxPoint x="729.5" y="243"/>
              <mxPoint x="729.5" y="272"/>
            </Array>
          </mxGeometry>
        </mxCell>
        <mxCell id="Uz3SCJ1bhqu5c_YVx1Ex-347" style="edgeStyle=none;rounded=0;orthogonalLoop=1;jettySize=auto;html=1;exitX=0.5;exitY=1;exitDx=0;exitDy=0;entryX=0.5;entryY=0;entryDx=0;entryDy=0;entryPerimeter=0;endArrow=block;endFill=1;" edge="1" source="Uz3SCJ1bhqu5c_YVx1Ex-350" target="Uz3SCJ1bhqu5c_YVx1Ex-353" parent="1">
          <mxGeometry relative="1" as="geometry"/>
        </mxCell>
        <mxCell id="Uz3SCJ1bhqu5c_YVx1Ex-348" style="rounded=0;orthogonalLoop=1;jettySize=auto;html=1;exitX=0.5;exitY=1;exitDx=0;exitDy=0;entryX=0.5;entryY=0;entryDx=0;entryDy=0;endArrow=block;endFill=1;fontFamily=Times New Roman;" edge="1" source="Uz3SCJ1bhqu5c_YVx1Ex-350" target="Uz3SCJ1bhqu5c_YVx1Ex-360" parent="1">
          <mxGeometry relative="1" as="geometry"/>
        </mxCell>
        <mxCell id="Uz3SCJ1bhqu5c_YVx1Ex-349" style="edgeStyle=none;rounded=0;orthogonalLoop=1;jettySize=auto;html=1;exitX=0.5;exitY=1;exitDx=0;exitDy=0;entryX=0.5;entryY=0;entryDx=0;entryDy=0;endArrow=block;endFill=1;fontFamily=Times New Roman;" edge="1" source="Uz3SCJ1bhqu5c_YVx1Ex-350" target="Uz3SCJ1bhqu5c_YVx1Ex-366" parent="1">
          <mxGeometry relative="1" as="geometry"/>
        </mxCell>
        <mxCell id="Uz3SCJ1bhqu5c_YVx1Ex-350" value="&lt;font style=&quot;font-size: 15px&quot; face=&quot;Times New Roman&quot;&gt;Start&lt;/font&gt;" style="rounded=1;whiteSpace=wrap;html=1;arcSize=47;strokeWidth=2;fontStyle=1;rotation=0;" vertex="1" parent="1">
          <mxGeometry x="98.5" y="403" width="60" height="30" as="geometry"/>
        </mxCell>
        <mxCell id="Uz3SCJ1bhqu5c_YVx1Ex-351" value="" style="edgeStyle=none;rounded=0;orthogonalLoop=1;jettySize=auto;html=1;endArrow=block;endFill=1;" edge="1" source="Uz3SCJ1bhqu5c_YVx1Ex-353" target="Uz3SCJ1bhqu5c_YVx1Ex-356" parent="1">
          <mxGeometry relative="1" as="geometry"/>
        </mxCell>
        <mxCell id="Uz3SCJ1bhqu5c_YVx1Ex-352" style="edgeStyle=none;rounded=0;orthogonalLoop=1;jettySize=auto;html=1;exitX=0;exitY=0.365;exitDx=0;exitDy=0;exitPerimeter=0;entryX=1;entryY=0.5;entryDx=0;entryDy=0;endArrow=block;endFill=1;fontFamily=Times New Roman;" edge="1" source="Uz3SCJ1bhqu5c_YVx1Ex-353" target="Uz3SCJ1bhqu5c_YVx1Ex-363" parent="1">
          <mxGeometry relative="1" as="geometry"/>
        </mxCell>
        <mxCell id="Uz3SCJ1bhqu5c_YVx1Ex-353" value="&lt;font face=&quot;Times New Roman&quot;&gt;&lt;b&gt;I&lt;sub&gt;1&lt;/sub&gt;&lt;/b&gt;&lt;/font&gt;" style="whiteSpace=wrap;html=1;shape=mxgraph.basic.pentagon;strokeWidth=2;fillColor=#FFFFFF;strokeColor=#82B366;" vertex="1" parent="1">
          <mxGeometry x="178.5" y="452" width="27" height="27" as="geometry"/>
        </mxCell>
        <mxCell id="Uz3SCJ1bhqu5c_YVx1Ex-354" value="" style="edgeStyle=none;rounded=0;orthogonalLoop=1;jettySize=auto;html=1;endArrow=block;endFill=1;fontFamily=Times New Roman;entryX=0.5;entryY=0;entryDx=0;entryDy=0;entryPerimeter=0;" edge="1" source="Uz3SCJ1bhqu5c_YVx1Ex-356" target="Uz3SCJ1bhqu5c_YVx1Ex-372" parent="1">
          <mxGeometry relative="1" as="geometry"/>
        </mxCell>
        <mxCell id="Uz3SCJ1bhqu5c_YVx1Ex-355" style="edgeStyle=none;rounded=0;orthogonalLoop=1;jettySize=auto;html=1;exitX=0;exitY=0.365;exitDx=0;exitDy=0;exitPerimeter=0;entryX=1;entryY=0.5;entryDx=0;entryDy=0;endArrow=block;endFill=1;fontFamily=Times New Roman;" edge="1" source="Uz3SCJ1bhqu5c_YVx1Ex-356" target="Uz3SCJ1bhqu5c_YVx1Ex-375" parent="1">
          <mxGeometry relative="1" as="geometry"/>
        </mxCell>
        <mxCell id="Uz3SCJ1bhqu5c_YVx1Ex-356" value="&lt;b style=&quot;font-family: &amp;#34;times new roman&amp;#34; ; white-space: normal&quot;&gt;I&lt;sub&gt;2&lt;/sub&gt;&lt;/b&gt;" style="whiteSpace=wrap;html=1;shape=mxgraph.basic.pentagon;strokeWidth=2;fillColor=#FFFFFF;strokeColor=#82B366;" vertex="1" parent="1">
          <mxGeometry x="178.5" y="499" width="27" height="27" as="geometry"/>
        </mxCell>
        <mxCell id="Uz3SCJ1bhqu5c_YVx1Ex-357" style="edgeStyle=orthogonalEdgeStyle;rounded=0;orthogonalLoop=1;jettySize=auto;html=1;exitX=0.5;exitY=0;exitDx=0;exitDy=0;exitPerimeter=0;entryX=0.473;entryY=1.072;entryDx=0;entryDy=0;entryPerimeter=0;endArrow=block;endFill=1;fontFamily=Times New Roman;curved=1;" edge="1" source="Uz3SCJ1bhqu5c_YVx1Ex-353" target="Uz3SCJ1bhqu5c_YVx1Ex-353" parent="1">
          <mxGeometry relative="1" as="geometry">
            <Array as="points">
              <mxPoint x="217.5" y="452"/>
              <mxPoint x="217.5" y="481"/>
            </Array>
          </mxGeometry>
        </mxCell>
        <mxCell id="Uz3SCJ1bhqu5c_YVx1Ex-358" style="edgeStyle=none;rounded=0;orthogonalLoop=1;jettySize=auto;html=1;exitX=0.5;exitY=1;exitDx=0;exitDy=0;entryX=0.5;entryY=0;entryDx=0;entryDy=0;endArrow=block;endFill=1;" edge="1" source="Uz3SCJ1bhqu5c_YVx1Ex-360" target="Uz3SCJ1bhqu5c_YVx1Ex-363" parent="1">
          <mxGeometry relative="1" as="geometry"/>
        </mxCell>
        <mxCell id="Uz3SCJ1bhqu5c_YVx1Ex-359" style="edgeStyle=none;rounded=0;orthogonalLoop=1;jettySize=auto;html=1;exitX=0;exitY=0.5;exitDx=0;exitDy=0;entryX=1;entryY=0.5;entryDx=0;entryDy=0;endArrow=block;endFill=1;fontFamily=Times New Roman;" edge="1" source="Uz3SCJ1bhqu5c_YVx1Ex-360" target="Uz3SCJ1bhqu5c_YVx1Ex-369" parent="1">
          <mxGeometry relative="1" as="geometry"/>
        </mxCell>
        <mxCell id="Uz3SCJ1bhqu5c_YVx1Ex-360" value="&lt;font face=&quot;Times New Roman&quot;&gt;M&lt;sub&gt;1&lt;/sub&gt;&lt;/font&gt;" style="rounded=0;whiteSpace=wrap;html=1;fillColor=#FFFFFF;strokeColor=#B85450;strokeWidth=2;fontStyle=1;rotation=0;" vertex="1" parent="1">
          <mxGeometry x="113.5" y="456.5" width="30" height="20" as="geometry"/>
        </mxCell>
        <mxCell id="Uz3SCJ1bhqu5c_YVx1Ex-361" style="edgeStyle=none;rounded=0;orthogonalLoop=1;jettySize=auto;html=1;exitX=0.5;exitY=1;exitDx=0;exitDy=0;entryX=0.5;entryY=0;entryDx=0;entryDy=0;endArrow=block;endFill=1;fontFamily=Times New Roman;" edge="1" source="Uz3SCJ1bhqu5c_YVx1Ex-363" target="Uz3SCJ1bhqu5c_YVx1Ex-375" parent="1">
          <mxGeometry relative="1" as="geometry"/>
        </mxCell>
        <mxCell id="Uz3SCJ1bhqu5c_YVx1Ex-362" style="edgeStyle=none;rounded=0;orthogonalLoop=1;jettySize=auto;html=1;exitX=0;exitY=0.5;exitDx=0;exitDy=0;entryX=1;entryY=0.5;entryDx=0;entryDy=0;endArrow=block;endFill=1;fontFamily=Times New Roman;" edge="1" source="Uz3SCJ1bhqu5c_YVx1Ex-363" target="Uz3SCJ1bhqu5c_YVx1Ex-378" parent="1">
          <mxGeometry relative="1" as="geometry"/>
        </mxCell>
        <mxCell id="Uz3SCJ1bhqu5c_YVx1Ex-363" value="&lt;font face=&quot;Times New Roman&quot;&gt;M&lt;sub&gt;2&lt;/sub&gt;&lt;/font&gt;" style="rounded=0;whiteSpace=wrap;html=1;fillColor=#FFFFFF;strokeColor=#B85450;strokeWidth=2;fontStyle=1;rotation=0;" vertex="1" parent="1">
          <mxGeometry x="113.5" y="502.5" width="30" height="20" as="geometry"/>
        </mxCell>
        <mxCell id="Uz3SCJ1bhqu5c_YVx1Ex-364" style="edgeStyle=none;rounded=0;orthogonalLoop=1;jettySize=auto;html=1;exitX=0.5;exitY=1;exitDx=0;exitDy=0;endArrow=block;endFill=1;" edge="1" source="Uz3SCJ1bhqu5c_YVx1Ex-366" target="Uz3SCJ1bhqu5c_YVx1Ex-369" parent="1">
          <mxGeometry relative="1" as="geometry"/>
        </mxCell>
        <mxCell id="Uz3SCJ1bhqu5c_YVx1Ex-365" style="edgeStyle=none;rounded=0;orthogonalLoop=1;jettySize=auto;html=1;exitX=1;exitY=0.5;exitDx=0;exitDy=0;entryX=0;entryY=0.5;entryDx=0;entryDy=0;endArrow=block;endFill=1;fontFamily=Times New Roman;" edge="1" source="Uz3SCJ1bhqu5c_YVx1Ex-366" target="Uz3SCJ1bhqu5c_YVx1Ex-363" parent="1">
          <mxGeometry relative="1" as="geometry"/>
        </mxCell>
        <mxCell id="Uz3SCJ1bhqu5c_YVx1Ex-366" value="&lt;b&gt;D&lt;sub&gt;1&lt;/sub&gt;&lt;/b&gt;" style="ellipse;whiteSpace=wrap;html=1;aspect=fixed;strokeWidth=2;fillColor=#FFFFFF;strokeColor=#82b366;fontFamily=Times New Roman;" vertex="1" parent="1">
          <mxGeometry x="48.5" y="454" width="27" height="27" as="geometry"/>
        </mxCell>
        <mxCell id="Uz3SCJ1bhqu5c_YVx1Ex-367" style="edgeStyle=none;rounded=0;orthogonalLoop=1;jettySize=auto;html=1;exitX=0.5;exitY=1;exitDx=0;exitDy=0;entryX=0.5;entryY=0;entryDx=0;entryDy=0;endArrow=block;endFill=1;fontFamily=Times New Roman;" edge="1" source="Uz3SCJ1bhqu5c_YVx1Ex-369" target="Uz3SCJ1bhqu5c_YVx1Ex-378" parent="1">
          <mxGeometry relative="1" as="geometry"/>
        </mxCell>
        <mxCell id="Uz3SCJ1bhqu5c_YVx1Ex-368" style="edgeStyle=none;rounded=0;orthogonalLoop=1;jettySize=auto;html=1;exitX=1;exitY=0.5;exitDx=0;exitDy=0;entryX=0;entryY=0.5;entryDx=0;entryDy=0;endArrow=block;endFill=1;fontFamily=Times New Roman;" edge="1" source="Uz3SCJ1bhqu5c_YVx1Ex-369" target="Uz3SCJ1bhqu5c_YVx1Ex-375" parent="1">
          <mxGeometry relative="1" as="geometry"/>
        </mxCell>
        <mxCell id="Uz3SCJ1bhqu5c_YVx1Ex-369" value="&lt;b style=&quot;font-family: &amp;#34;times new roman&amp;#34; ; white-space: normal&quot;&gt;D&lt;sub&gt;2&lt;/sub&gt;&lt;/b&gt;" style="ellipse;whiteSpace=wrap;html=1;aspect=fixed;strokeWidth=2;fillColor=#FFFFFF;strokeColor=#82b366;" vertex="1" parent="1">
          <mxGeometry x="48.5" y="501" width="27" height="27" as="geometry"/>
        </mxCell>
        <mxCell id="Uz3SCJ1bhqu5c_YVx1Ex-370" value="" style="edgeStyle=none;rounded=0;orthogonalLoop=1;jettySize=auto;html=1;endArrow=block;endFill=1;fontFamily=Times New Roman;" edge="1" source="Uz3SCJ1bhqu5c_YVx1Ex-372" target="Uz3SCJ1bhqu5c_YVx1Ex-392" parent="1">
          <mxGeometry relative="1" as="geometry">
            <mxPoint x="191.99999999999977" y="593.5" as="targetPoint"/>
          </mxGeometry>
        </mxCell>
        <mxCell id="Uz3SCJ1bhqu5c_YVx1Ex-371" style="edgeStyle=none;rounded=0;orthogonalLoop=1;jettySize=auto;html=1;exitX=0;exitY=0.365;exitDx=0;exitDy=0;exitPerimeter=0;entryX=0.5;entryY=0;entryDx=0;entryDy=0;endArrow=block;endFill=1;fontFamily=Times New Roman;" edge="1" source="Uz3SCJ1bhqu5c_YVx1Ex-372" target="Uz3SCJ1bhqu5c_YVx1Ex-394" parent="1">
          <mxGeometry relative="1" as="geometry">
            <mxPoint x="143.5" y="606.5" as="targetPoint"/>
          </mxGeometry>
        </mxCell>
        <mxCell id="Uz3SCJ1bhqu5c_YVx1Ex-372" value="&lt;b style=&quot;font-family: &amp;#34;times new roman&amp;#34; ; white-space: normal&quot;&gt;I&lt;sub&gt;3&lt;/sub&gt;&lt;/b&gt;" style="whiteSpace=wrap;html=1;shape=mxgraph.basic.pentagon;strokeWidth=2;fillColor=#FFFFFF;strokeColor=#82B366;" vertex="1" parent="1">
          <mxGeometry x="178.5" y="546.5" width="27" height="27" as="geometry"/>
        </mxCell>
        <mxCell id="Uz3SCJ1bhqu5c_YVx1Ex-373" style="edgeStyle=none;rounded=0;orthogonalLoop=1;jettySize=auto;html=1;exitX=0.5;exitY=1;exitDx=0;exitDy=0;entryX=0.5;entryY=0;entryDx=0;entryDy=0;endArrow=block;endFill=1;fontFamily=Times New Roman;" edge="1" source="Uz3SCJ1bhqu5c_YVx1Ex-375" target="Uz3SCJ1bhqu5c_YVx1Ex-394" parent="1">
          <mxGeometry relative="1" as="geometry">
            <mxPoint x="128.5" y="596.5" as="targetPoint"/>
          </mxGeometry>
        </mxCell>
        <mxCell id="Uz3SCJ1bhqu5c_YVx1Ex-374" style="edgeStyle=none;rounded=0;orthogonalLoop=1;jettySize=auto;html=1;exitX=0;exitY=0.5;exitDx=0;exitDy=0;entryX=0.5;entryY=0;entryDx=0;entryDy=0;endArrow=block;endFill=1;fontFamily=Times New Roman;" edge="1" source="Uz3SCJ1bhqu5c_YVx1Ex-375" target="Uz3SCJ1bhqu5c_YVx1Ex-396" parent="1">
          <mxGeometry relative="1" as="geometry">
            <mxPoint x="75.49999999999477" y="609.5" as="targetPoint"/>
          </mxGeometry>
        </mxCell>
        <mxCell id="Uz3SCJ1bhqu5c_YVx1Ex-375" value="&lt;font face=&quot;Times New Roman&quot;&gt;M&lt;sub&gt;3&lt;/sub&gt;&lt;/font&gt;" style="rounded=0;whiteSpace=wrap;html=1;fillColor=#FFFFFF;strokeColor=#B85450;strokeWidth=2;fontStyle=1;rotation=0;" vertex="1" parent="1">
          <mxGeometry x="113.5" y="549.5" width="30" height="20" as="geometry"/>
        </mxCell>
        <mxCell id="Uz3SCJ1bhqu5c_YVx1Ex-376" style="edgeStyle=none;rounded=0;orthogonalLoop=1;jettySize=auto;html=1;exitX=0.5;exitY=1;exitDx=0;exitDy=0;entryX=0.5;entryY=0;entryDx=0;entryDy=0;endArrow=block;endFill=1;fontFamily=Times New Roman;" edge="1" source="Uz3SCJ1bhqu5c_YVx1Ex-378" target="Uz3SCJ1bhqu5c_YVx1Ex-396" parent="1">
          <mxGeometry relative="1" as="geometry">
            <mxPoint x="62" y="596" as="targetPoint"/>
          </mxGeometry>
        </mxCell>
        <mxCell id="Uz3SCJ1bhqu5c_YVx1Ex-377" style="edgeStyle=none;rounded=0;orthogonalLoop=1;jettySize=auto;html=1;exitX=1;exitY=0.5;exitDx=0;exitDy=0;entryX=0.5;entryY=0;entryDx=0;entryDy=0;endArrow=block;endFill=1;fontFamily=Times New Roman;" edge="1" source="Uz3SCJ1bhqu5c_YVx1Ex-378" target="Uz3SCJ1bhqu5c_YVx1Ex-394" parent="1">
          <mxGeometry relative="1" as="geometry">
            <mxPoint x="113.5" y="606.5" as="targetPoint"/>
          </mxGeometry>
        </mxCell>
        <mxCell id="Uz3SCJ1bhqu5c_YVx1Ex-378" value="&lt;b style=&quot;font-family: &amp;#34;times new roman&amp;#34; ; white-space: normal&quot;&gt;D&lt;sub&gt;3&lt;/sub&gt;&lt;/b&gt;" style="ellipse;whiteSpace=wrap;html=1;aspect=fixed;strokeWidth=2;fillColor=#FFFFFF;strokeColor=#82b366;" vertex="1" parent="1">
          <mxGeometry x="48.5" y="548.5" width="27" height="27" as="geometry"/>
        </mxCell>
        <mxCell id="Uz3SCJ1bhqu5c_YVx1Ex-388" style="edgeStyle=orthogonalEdgeStyle;rounded=0;orthogonalLoop=1;jettySize=auto;html=1;exitX=0.5;exitY=0;exitDx=0;exitDy=0;exitPerimeter=0;entryX=0.473;entryY=1.072;entryDx=0;entryDy=0;entryPerimeter=0;endArrow=block;endFill=1;fontFamily=Times New Roman;curved=1;" edge="1" parent="1">
          <mxGeometry relative="1" as="geometry">
            <mxPoint x="192.5" y="498.5" as="sourcePoint"/>
            <mxPoint x="192.5" y="527.5" as="targetPoint"/>
            <Array as="points">
              <mxPoint x="218" y="498"/>
              <mxPoint x="218" y="527"/>
            </Array>
          </mxGeometry>
        </mxCell>
        <mxCell id="Uz3SCJ1bhqu5c_YVx1Ex-389" style="edgeStyle=orthogonalEdgeStyle;rounded=0;orthogonalLoop=1;jettySize=auto;html=1;exitX=0.5;exitY=0;exitDx=0;exitDy=0;exitPerimeter=0;entryX=0.473;entryY=1.072;entryDx=0;entryDy=0;entryPerimeter=0;endArrow=block;endFill=1;fontFamily=Times New Roman;curved=1;" edge="1" parent="1">
          <mxGeometry relative="1" as="geometry">
            <mxPoint x="192.5" y="545.5" as="sourcePoint"/>
            <mxPoint x="192.5" y="574.5" as="targetPoint"/>
            <Array as="points">
              <mxPoint x="218" y="545"/>
              <mxPoint x="218" y="574"/>
            </Array>
          </mxGeometry>
        </mxCell>
        <mxCell id="Uz3SCJ1bhqu5c_YVx1Ex-391" value="" style="edgeStyle=none;rounded=0;orthogonalLoop=1;jettySize=auto;html=1;endArrow=block;endFill=1;strokeWidth=1;fontFamily=Times New Roman;entryX=0.5;entryY=0;entryDx=0;entryDy=0;" edge="1" target="Uz3SCJ1bhqu5c_YVx1Ex-397" parent="1">
          <mxGeometry relative="1" as="geometry">
            <mxPoint x="192.5" y="663.5" as="sourcePoint"/>
          </mxGeometry>
        </mxCell>
        <mxCell id="Uz3SCJ1bhqu5c_YVx1Ex-392" value="&lt;b style=&quot;font-family: &amp;#34;times new roman&amp;#34; ; white-space: normal&quot;&gt;I&lt;sub&gt;5&lt;/sub&gt;&lt;/b&gt;" style="whiteSpace=wrap;html=1;shape=mxgraph.basic.pentagon;strokeWidth=2;fillColor=#FFFFFF;strokeColor=#82B366;" vertex="1" parent="1">
          <mxGeometry x="179" y="636.5" width="27" height="27" as="geometry"/>
        </mxCell>
        <mxCell id="Uz3SCJ1bhqu5c_YVx1Ex-393" style="edgeStyle=none;rounded=0;orthogonalLoop=1;jettySize=auto;html=1;exitX=0.5;exitY=1;exitDx=0;exitDy=0;endArrow=block;endFill=1;strokeWidth=1;fontFamily=Times New Roman;" edge="1" source="Uz3SCJ1bhqu5c_YVx1Ex-394" parent="1">
          <mxGeometry relative="1" as="geometry">
            <mxPoint x="129.21428571428578" y="683.5" as="targetPoint"/>
          </mxGeometry>
        </mxCell>
        <mxCell id="Uz3SCJ1bhqu5c_YVx1Ex-394" value="&lt;font face=&quot;Times New Roman&quot;&gt;M&lt;sub&gt;5&lt;/sub&gt;&lt;/font&gt;" style="rounded=0;whiteSpace=wrap;html=1;fillColor=#FFFFFF;strokeColor=#B85450;strokeWidth=2;fontStyle=1;rotation=0;" vertex="1" parent="1">
          <mxGeometry x="114" y="639.5" width="30" height="20" as="geometry"/>
        </mxCell>
        <mxCell id="Uz3SCJ1bhqu5c_YVx1Ex-395" style="edgeStyle=none;rounded=0;orthogonalLoop=1;jettySize=auto;html=1;exitX=0.5;exitY=1;exitDx=0;exitDy=0;entryX=0.5;entryY=0;entryDx=0;entryDy=0;endArrow=block;endFill=1;strokeWidth=1;fontFamily=Times New Roman;" edge="1" source="Uz3SCJ1bhqu5c_YVx1Ex-396" target="Uz3SCJ1bhqu5c_YVx1Ex-397" parent="1">
          <mxGeometry relative="1" as="geometry"/>
        </mxCell>
        <mxCell id="Uz3SCJ1bhqu5c_YVx1Ex-396" value="&lt;b style=&quot;font-family: &amp;#34;times new roman&amp;#34; ; white-space: normal&quot;&gt;D&lt;sub&gt;5&lt;/sub&gt;&lt;/b&gt;" style="ellipse;whiteSpace=wrap;html=1;aspect=fixed;strokeWidth=2;fillColor=#FFFFFF;strokeColor=#82b366;" vertex="1" parent="1">
          <mxGeometry x="49" y="639" width="27" height="27" as="geometry"/>
        </mxCell>
        <mxCell id="Uz3SCJ1bhqu5c_YVx1Ex-397" value="&lt;font style=&quot;font-size: 15px&quot; face=&quot;Times New Roman&quot;&gt;End&lt;/font&gt;" style="rounded=1;whiteSpace=wrap;html=1;arcSize=47;strokeWidth=2;fontStyle=1" vertex="1" parent="1">
          <mxGeometry x="98.5" y="681.5" width="60" height="30" as="geometry"/>
        </mxCell>
        <mxCell id="Uz3SCJ1bhqu5c_YVx1Ex-398" style="edgeStyle=orthogonalEdgeStyle;rounded=0;orthogonalLoop=1;jettySize=auto;html=1;exitX=0.5;exitY=0;exitDx=0;exitDy=0;exitPerimeter=0;entryX=0.473;entryY=1.072;entryDx=0;entryDy=0;entryPerimeter=0;endArrow=block;endFill=1;fontFamily=Times New Roman;curved=1;" edge="1" parent="1">
          <mxGeometry relative="1" as="geometry">
            <mxPoint x="191.5" y="636.5" as="sourcePoint"/>
            <mxPoint x="191.5" y="665.5" as="targetPoint"/>
            <Array as="points">
              <mxPoint x="218" y="636.5"/>
              <mxPoint x="218" y="665.5"/>
            </Array>
          </mxGeometry>
        </mxCell>
        <mxCell id="Uz3SCJ1bhqu5c_YVx1Ex-399" style="edgeStyle=none;rounded=0;orthogonalLoop=1;jettySize=auto;html=1;exitX=0.5;exitY=1;exitDx=0;exitDy=0;entryX=0.5;entryY=0;entryDx=0;entryDy=0;entryPerimeter=0;endArrow=block;endFill=1;" edge="1" source="Uz3SCJ1bhqu5c_YVx1Ex-402" target="Uz3SCJ1bhqu5c_YVx1Ex-405" parent="1">
          <mxGeometry relative="1" as="geometry"/>
        </mxCell>
        <mxCell id="Uz3SCJ1bhqu5c_YVx1Ex-400" style="rounded=0;orthogonalLoop=1;jettySize=auto;html=1;exitX=0.5;exitY=1;exitDx=0;exitDy=0;entryX=0.5;entryY=0;entryDx=0;entryDy=0;endArrow=block;endFill=1;fontFamily=Times New Roman;" edge="1" source="Uz3SCJ1bhqu5c_YVx1Ex-402" target="Uz3SCJ1bhqu5c_YVx1Ex-412" parent="1">
          <mxGeometry relative="1" as="geometry"/>
        </mxCell>
        <mxCell id="Uz3SCJ1bhqu5c_YVx1Ex-401" style="edgeStyle=none;rounded=0;orthogonalLoop=1;jettySize=auto;html=1;exitX=0.5;exitY=1;exitDx=0;exitDy=0;entryX=0.5;entryY=0;entryDx=0;entryDy=0;endArrow=block;endFill=1;fontFamily=Times New Roman;" edge="1" source="Uz3SCJ1bhqu5c_YVx1Ex-402" target="Uz3SCJ1bhqu5c_YVx1Ex-418" parent="1">
          <mxGeometry relative="1" as="geometry"/>
        </mxCell>
        <mxCell id="Uz3SCJ1bhqu5c_YVx1Ex-402" value="&lt;font style=&quot;font-size: 15px&quot; face=&quot;Times New Roman&quot;&gt;Start&lt;/font&gt;" style="rounded=1;whiteSpace=wrap;html=1;arcSize=47;strokeWidth=2;fontStyle=1;rotation=0;" vertex="1" parent="1">
          <mxGeometry x="302" y="403" width="60" height="30" as="geometry"/>
        </mxCell>
        <mxCell id="Uz3SCJ1bhqu5c_YVx1Ex-403" value="" style="edgeStyle=none;rounded=0;orthogonalLoop=1;jettySize=auto;html=1;endArrow=block;endFill=1;entryX=0.5;entryY=0;entryDx=0;entryDy=0;entryPerimeter=0;" edge="1" source="Uz3SCJ1bhqu5c_YVx1Ex-405" target="Uz3SCJ1bhqu5c_YVx1Ex-424" parent="1">
          <mxGeometry relative="1" as="geometry">
            <mxPoint x="395.5" y="499" as="targetPoint"/>
          </mxGeometry>
        </mxCell>
        <mxCell id="Uz3SCJ1bhqu5c_YVx1Ex-404" style="edgeStyle=none;rounded=0;orthogonalLoop=1;jettySize=auto;html=1;exitX=0;exitY=0.365;exitDx=0;exitDy=0;exitPerimeter=0;entryX=0.5;entryY=0;entryDx=0;entryDy=0;endArrow=block;endFill=1;fontFamily=Times New Roman;" edge="1" source="Uz3SCJ1bhqu5c_YVx1Ex-405" target="Uz3SCJ1bhqu5c_YVx1Ex-427" parent="1">
          <mxGeometry relative="1" as="geometry">
            <mxPoint x="347" y="512.5" as="targetPoint"/>
          </mxGeometry>
        </mxCell>
        <mxCell id="Uz3SCJ1bhqu5c_YVx1Ex-405" value="&lt;font face=&quot;Times New Roman&quot;&gt;&lt;b&gt;I&lt;sub&gt;1&lt;/sub&gt;&lt;/b&gt;&lt;/font&gt;" style="whiteSpace=wrap;html=1;shape=mxgraph.basic.pentagon;strokeWidth=2;fillColor=#FFFFFF;strokeColor=#82B366;" vertex="1" parent="1">
          <mxGeometry x="382" y="452" width="27" height="27" as="geometry"/>
        </mxCell>
        <mxCell id="Uz3SCJ1bhqu5c_YVx1Ex-409" style="edgeStyle=orthogonalEdgeStyle;rounded=0;orthogonalLoop=1;jettySize=auto;html=1;exitX=0.5;exitY=0;exitDx=0;exitDy=0;exitPerimeter=0;entryX=0.473;entryY=1.072;entryDx=0;entryDy=0;entryPerimeter=0;endArrow=block;endFill=1;fontFamily=Times New Roman;curved=1;" edge="1" source="Uz3SCJ1bhqu5c_YVx1Ex-405" target="Uz3SCJ1bhqu5c_YVx1Ex-405" parent="1">
          <mxGeometry relative="1" as="geometry">
            <Array as="points">
              <mxPoint x="421" y="452"/>
              <mxPoint x="421" y="481"/>
            </Array>
          </mxGeometry>
        </mxCell>
        <mxCell id="Uz3SCJ1bhqu5c_YVx1Ex-410" style="edgeStyle=none;rounded=0;orthogonalLoop=1;jettySize=auto;html=1;exitX=0.5;exitY=1;exitDx=0;exitDy=0;endArrow=block;endFill=1;entryX=0.5;entryY=0;entryDx=0;entryDy=0;" edge="1" source="Uz3SCJ1bhqu5c_YVx1Ex-412" target="Uz3SCJ1bhqu5c_YVx1Ex-427" parent="1">
          <mxGeometry relative="1" as="geometry">
            <mxPoint x="332" y="553" as="targetPoint"/>
          </mxGeometry>
        </mxCell>
        <mxCell id="Uz3SCJ1bhqu5c_YVx1Ex-411" style="edgeStyle=none;rounded=0;orthogonalLoop=1;jettySize=auto;html=1;exitX=0;exitY=0.5;exitDx=0;exitDy=0;entryX=0.5;entryY=0;entryDx=0;entryDy=0;endArrow=block;endFill=1;fontFamily=Times New Roman;" edge="1" source="Uz3SCJ1bhqu5c_YVx1Ex-412" target="Uz3SCJ1bhqu5c_YVx1Ex-430" parent="1">
          <mxGeometry relative="1" as="geometry">
            <mxPoint x="278.99999999999636" y="514.5" as="targetPoint"/>
          </mxGeometry>
        </mxCell>
        <mxCell id="Uz3SCJ1bhqu5c_YVx1Ex-412" value="&lt;font face=&quot;Times New Roman&quot;&gt;M&lt;sub&gt;1&lt;/sub&gt;&lt;/font&gt;" style="rounded=0;whiteSpace=wrap;html=1;fillColor=#FFFFFF;strokeColor=#B85450;strokeWidth=2;fontStyle=1;rotation=0;" vertex="1" parent="1">
          <mxGeometry x="317" y="456.5" width="30" height="20" as="geometry"/>
        </mxCell>
        <mxCell id="Uz3SCJ1bhqu5c_YVx1Ex-416" style="edgeStyle=none;rounded=0;orthogonalLoop=1;jettySize=auto;html=1;exitX=0.5;exitY=1;exitDx=0;exitDy=0;endArrow=block;endFill=1;entryX=0.5;entryY=0;entryDx=0;entryDy=0;" edge="1" source="Uz3SCJ1bhqu5c_YVx1Ex-418" target="Uz3SCJ1bhqu5c_YVx1Ex-430" parent="1">
          <mxGeometry relative="1" as="geometry">
            <mxPoint x="265.5" y="501" as="targetPoint"/>
          </mxGeometry>
        </mxCell>
        <mxCell id="Uz3SCJ1bhqu5c_YVx1Ex-417" style="edgeStyle=none;rounded=0;orthogonalLoop=1;jettySize=auto;html=1;exitX=1;exitY=0.5;exitDx=0;exitDy=0;entryX=0.5;entryY=0;entryDx=0;entryDy=0;endArrow=block;endFill=1;fontFamily=Times New Roman;" edge="1" source="Uz3SCJ1bhqu5c_YVx1Ex-418" target="Uz3SCJ1bhqu5c_YVx1Ex-427" parent="1">
          <mxGeometry relative="1" as="geometry">
            <mxPoint x="317" y="512.5" as="targetPoint"/>
          </mxGeometry>
        </mxCell>
        <mxCell id="Uz3SCJ1bhqu5c_YVx1Ex-418" value="&lt;b&gt;D&lt;sub&gt;1&lt;/sub&gt;&lt;/b&gt;" style="ellipse;whiteSpace=wrap;html=1;aspect=fixed;strokeWidth=2;fillColor=#FFFFFF;strokeColor=#82b366;fontFamily=Times New Roman;" vertex="1" parent="1">
          <mxGeometry x="252" y="454" width="27" height="27" as="geometry"/>
        </mxCell>
        <mxCell id="Uz3SCJ1bhqu5c_YVx1Ex-422" value="" style="edgeStyle=none;rounded=0;orthogonalLoop=1;jettySize=auto;html=1;endArrow=block;endFill=1;fontFamily=Times New Roman;entryX=0.5;entryY=0;entryDx=0;entryDy=0;entryPerimeter=0;" edge="1" source="Uz3SCJ1bhqu5c_YVx1Ex-424" target="Uz3SCJ1bhqu5c_YVx1Ex-433" parent="1">
          <mxGeometry relative="1" as="geometry">
            <mxPoint x="395.4999999999998" y="653.5" as="targetPoint"/>
          </mxGeometry>
        </mxCell>
        <mxCell id="Uz3SCJ1bhqu5c_YVx1Ex-423" style="edgeStyle=none;rounded=0;orthogonalLoop=1;jettySize=auto;html=1;exitX=0;exitY=0.365;exitDx=0;exitDy=0;exitPerimeter=0;entryX=1;entryY=0.5;entryDx=0;entryDy=0;endArrow=block;endFill=1;fontFamily=Times New Roman;" edge="1" source="Uz3SCJ1bhqu5c_YVx1Ex-424" target="Uz3SCJ1bhqu5c_YVx1Ex-436" parent="1">
          <mxGeometry relative="1" as="geometry"/>
        </mxCell>
        <mxCell id="Uz3SCJ1bhqu5c_YVx1Ex-424" value="&lt;b style=&quot;font-family: &amp;#34;times new roman&amp;#34; ; white-space: normal&quot;&gt;I&lt;sub&gt;3&lt;/sub&gt;&lt;/b&gt;" style="whiteSpace=wrap;html=1;shape=mxgraph.basic.pentagon;strokeWidth=2;fillColor=#FFFFFF;strokeColor=#82B366;" vertex="1" parent="1">
          <mxGeometry x="382" y="546.5" width="27" height="27" as="geometry"/>
        </mxCell>
        <mxCell id="Uz3SCJ1bhqu5c_YVx1Ex-425" style="edgeStyle=none;rounded=0;orthogonalLoop=1;jettySize=auto;html=1;exitX=0.5;exitY=1;exitDx=0;exitDy=0;entryX=0.5;entryY=0;entryDx=0;entryDy=0;endArrow=block;endFill=1;fontFamily=Times New Roman;" edge="1" source="Uz3SCJ1bhqu5c_YVx1Ex-427" target="Uz3SCJ1bhqu5c_YVx1Ex-436" parent="1">
          <mxGeometry relative="1" as="geometry"/>
        </mxCell>
        <mxCell id="Uz3SCJ1bhqu5c_YVx1Ex-426" style="edgeStyle=none;rounded=0;orthogonalLoop=1;jettySize=auto;html=1;exitX=0;exitY=0.5;exitDx=0;exitDy=0;entryX=1;entryY=0.5;entryDx=0;entryDy=0;endArrow=block;endFill=1;fontFamily=Times New Roman;" edge="1" source="Uz3SCJ1bhqu5c_YVx1Ex-427" target="Uz3SCJ1bhqu5c_YVx1Ex-439" parent="1">
          <mxGeometry relative="1" as="geometry"/>
        </mxCell>
        <mxCell id="Uz3SCJ1bhqu5c_YVx1Ex-427" value="&lt;font face=&quot;Times New Roman&quot;&gt;M&lt;sub&gt;3&lt;/sub&gt;&lt;/font&gt;" style="rounded=0;whiteSpace=wrap;html=1;fillColor=#FFFFFF;strokeColor=#B85450;strokeWidth=2;fontStyle=1;rotation=0;" vertex="1" parent="1">
          <mxGeometry x="317" y="549.5" width="30" height="20" as="geometry"/>
        </mxCell>
        <mxCell id="Uz3SCJ1bhqu5c_YVx1Ex-428" style="edgeStyle=none;rounded=0;orthogonalLoop=1;jettySize=auto;html=1;exitX=0.5;exitY=1;exitDx=0;exitDy=0;entryX=0.5;entryY=0;entryDx=0;entryDy=0;endArrow=block;endFill=1;fontFamily=Times New Roman;" edge="1" source="Uz3SCJ1bhqu5c_YVx1Ex-430" target="Uz3SCJ1bhqu5c_YVx1Ex-439" parent="1">
          <mxGeometry relative="1" as="geometry"/>
        </mxCell>
        <mxCell id="Uz3SCJ1bhqu5c_YVx1Ex-429" style="edgeStyle=none;rounded=0;orthogonalLoop=1;jettySize=auto;html=1;exitX=1;exitY=0.5;exitDx=0;exitDy=0;entryX=0;entryY=0.5;entryDx=0;entryDy=0;endArrow=block;endFill=1;fontFamily=Times New Roman;" edge="1" source="Uz3SCJ1bhqu5c_YVx1Ex-430" target="Uz3SCJ1bhqu5c_YVx1Ex-436" parent="1">
          <mxGeometry relative="1" as="geometry"/>
        </mxCell>
        <mxCell id="Uz3SCJ1bhqu5c_YVx1Ex-430" value="&lt;b style=&quot;font-family: &amp;#34;times new roman&amp;#34; ; white-space: normal&quot;&gt;D&lt;sub&gt;3&lt;/sub&gt;&lt;/b&gt;" style="ellipse;whiteSpace=wrap;html=1;aspect=fixed;strokeWidth=2;fillColor=#FFFFFF;strokeColor=#82b366;" vertex="1" parent="1">
          <mxGeometry x="252" y="548.5" width="27" height="27" as="geometry"/>
        </mxCell>
        <mxCell id="Uz3SCJ1bhqu5c_YVx1Ex-431" value="" style="edgeStyle=none;rounded=0;orthogonalLoop=1;jettySize=auto;html=1;endArrow=block;endFill=1;strokeWidth=1;fontFamily=Times New Roman;entryX=0.5;entryY=0;entryDx=0;entryDy=0;entryPerimeter=0;" edge="1" source="Uz3SCJ1bhqu5c_YVx1Ex-433" target="Uz3SCJ1bhqu5c_YVx1Ex-444" parent="1">
          <mxGeometry relative="1" as="geometry">
            <mxPoint x="395.5000000000002" y="700.5" as="targetPoint"/>
          </mxGeometry>
        </mxCell>
        <mxCell id="Uz3SCJ1bhqu5c_YVx1Ex-432" style="edgeStyle=none;rounded=0;orthogonalLoop=1;jettySize=auto;html=1;exitX=0;exitY=0.365;exitDx=0;exitDy=0;exitPerimeter=0;entryX=1;entryY=0.5;entryDx=0;entryDy=0;endArrow=block;endFill=1;strokeWidth=1;fontFamily=Times New Roman;" edge="1" source="Uz3SCJ1bhqu5c_YVx1Ex-433" target="Uz3SCJ1bhqu5c_YVx1Ex-446" parent="1">
          <mxGeometry relative="1" as="geometry"/>
        </mxCell>
        <mxCell id="Uz3SCJ1bhqu5c_YVx1Ex-433" value="&lt;b style=&quot;font-family: &amp;#34;times new roman&amp;#34; ; white-space: normal&quot;&gt;I&lt;sub&gt;4&lt;/sub&gt;&lt;/b&gt;" style="whiteSpace=wrap;html=1;shape=mxgraph.basic.pentagon;strokeWidth=2;fillColor=#FFFFFF;strokeColor=#82B366;" vertex="1" parent="1">
          <mxGeometry x="382" y="593.5" width="27" height="27" as="geometry"/>
        </mxCell>
        <mxCell id="Uz3SCJ1bhqu5c_YVx1Ex-434" style="edgeStyle=none;rounded=0;orthogonalLoop=1;jettySize=auto;html=1;exitX=0.5;exitY=1;exitDx=0;exitDy=0;entryX=0.5;entryY=0;entryDx=0;entryDy=0;endArrow=block;endFill=1;strokeWidth=1;fontFamily=Times New Roman;" edge="1" source="Uz3SCJ1bhqu5c_YVx1Ex-436" target="Uz3SCJ1bhqu5c_YVx1Ex-446" parent="1">
          <mxGeometry relative="1" as="geometry"/>
        </mxCell>
        <mxCell id="Uz3SCJ1bhqu5c_YVx1Ex-435" style="edgeStyle=none;rounded=0;orthogonalLoop=1;jettySize=auto;html=1;exitX=0;exitY=0.5;exitDx=0;exitDy=0;entryX=1;entryY=0.5;entryDx=0;entryDy=0;endArrow=block;endFill=1;strokeWidth=1;fontFamily=Times New Roman;" edge="1" source="Uz3SCJ1bhqu5c_YVx1Ex-436" target="Uz3SCJ1bhqu5c_YVx1Ex-448" parent="1">
          <mxGeometry relative="1" as="geometry"/>
        </mxCell>
        <mxCell id="Uz3SCJ1bhqu5c_YVx1Ex-436" value="&lt;font face=&quot;Times New Roman&quot;&gt;M&lt;sub&gt;4&lt;/sub&gt;&lt;/font&gt;" style="rounded=0;whiteSpace=wrap;html=1;fillColor=#FFFFFF;strokeColor=#B85450;strokeWidth=2;fontStyle=1;rotation=0;" vertex="1" parent="1">
          <mxGeometry x="317" y="596.5" width="30" height="20" as="geometry"/>
        </mxCell>
        <mxCell id="Uz3SCJ1bhqu5c_YVx1Ex-437" style="edgeStyle=none;rounded=0;orthogonalLoop=1;jettySize=auto;html=1;exitX=0.5;exitY=1;exitDx=0;exitDy=0;endArrow=block;endFill=1;strokeWidth=1;fontFamily=Times New Roman;" edge="1" source="Uz3SCJ1bhqu5c_YVx1Ex-439" target="Uz3SCJ1bhqu5c_YVx1Ex-448" parent="1">
          <mxGeometry relative="1" as="geometry"/>
        </mxCell>
        <mxCell id="Uz3SCJ1bhqu5c_YVx1Ex-438" style="edgeStyle=none;rounded=0;orthogonalLoop=1;jettySize=auto;html=1;exitX=1;exitY=0.5;exitDx=0;exitDy=0;entryX=0;entryY=0.5;entryDx=0;entryDy=0;endArrow=block;endFill=1;strokeWidth=1;fontFamily=Times New Roman;" edge="1" source="Uz3SCJ1bhqu5c_YVx1Ex-439" target="Uz3SCJ1bhqu5c_YVx1Ex-446" parent="1">
          <mxGeometry relative="1" as="geometry"/>
        </mxCell>
        <mxCell id="Uz3SCJ1bhqu5c_YVx1Ex-439" value="&lt;b style=&quot;font-family: &amp;#34;times new roman&amp;#34; ; white-space: normal&quot;&gt;D&lt;sub&gt;4&lt;/sub&gt;&lt;/b&gt;" style="ellipse;whiteSpace=wrap;html=1;aspect=fixed;strokeWidth=2;fillColor=#FFFFFF;strokeColor=#82b366;" vertex="1" parent="1">
          <mxGeometry x="252" y="596" width="27" height="27" as="geometry"/>
        </mxCell>
        <mxCell id="Uz3SCJ1bhqu5c_YVx1Ex-441" style="edgeStyle=orthogonalEdgeStyle;rounded=0;orthogonalLoop=1;jettySize=auto;html=1;exitX=0.5;exitY=0;exitDx=0;exitDy=0;exitPerimeter=0;entryX=0.473;entryY=1.072;entryDx=0;entryDy=0;entryPerimeter=0;endArrow=block;endFill=1;fontFamily=Times New Roman;curved=1;" edge="1" parent="1">
          <mxGeometry relative="1" as="geometry">
            <mxPoint x="395.3333333333335" y="545.3333333333334" as="sourcePoint"/>
            <mxPoint x="395.3333333333335" y="574.5" as="targetPoint"/>
            <Array as="points">
              <mxPoint x="421.5" y="545"/>
              <mxPoint x="421.5" y="574"/>
            </Array>
          </mxGeometry>
        </mxCell>
        <mxCell id="Uz3SCJ1bhqu5c_YVx1Ex-442" style="edgeStyle=orthogonalEdgeStyle;rounded=0;orthogonalLoop=1;jettySize=auto;html=1;exitX=0.5;exitY=0;exitDx=0;exitDy=0;exitPerimeter=0;entryX=0.473;entryY=1.072;entryDx=0;entryDy=0;entryPerimeter=0;endArrow=block;endFill=1;fontFamily=Times New Roman;curved=1;" edge="1" parent="1">
          <mxGeometry relative="1" as="geometry">
            <mxPoint x="394.5" y="592.8333333333334" as="sourcePoint"/>
            <mxPoint x="394.5" y="622" as="targetPoint"/>
            <Array as="points">
              <mxPoint x="420.5" y="593"/>
              <mxPoint x="420.5" y="622"/>
            </Array>
          </mxGeometry>
        </mxCell>
        <mxCell id="Uz3SCJ1bhqu5c_YVx1Ex-443" value="" style="edgeStyle=none;rounded=0;orthogonalLoop=1;jettySize=auto;html=1;endArrow=block;endFill=1;strokeWidth=1;fontFamily=Times New Roman;entryX=0.5;entryY=0;entryDx=0;entryDy=0;" edge="1" target="Uz3SCJ1bhqu5c_YVx1Ex-449" parent="1">
          <mxGeometry relative="1" as="geometry">
            <mxPoint x="395.9999999999998" y="663.5" as="sourcePoint"/>
          </mxGeometry>
        </mxCell>
        <mxCell id="Uz3SCJ1bhqu5c_YVx1Ex-444" value="&lt;b style=&quot;font-family: &amp;#34;times new roman&amp;#34; ; white-space: normal&quot;&gt;I&lt;sub&gt;5&lt;/sub&gt;&lt;/b&gt;" style="whiteSpace=wrap;html=1;shape=mxgraph.basic.pentagon;strokeWidth=2;fillColor=#FFFFFF;strokeColor=#82B366;" vertex="1" parent="1">
          <mxGeometry x="382.5" y="636.5" width="27" height="27" as="geometry"/>
        </mxCell>
        <mxCell id="Uz3SCJ1bhqu5c_YVx1Ex-445" style="edgeStyle=none;rounded=0;orthogonalLoop=1;jettySize=auto;html=1;exitX=0.5;exitY=1;exitDx=0;exitDy=0;endArrow=block;endFill=1;strokeWidth=1;fontFamily=Times New Roman;" edge="1" source="Uz3SCJ1bhqu5c_YVx1Ex-446" parent="1">
          <mxGeometry relative="1" as="geometry">
            <mxPoint x="332.71428571428555" y="683.5" as="targetPoint"/>
          </mxGeometry>
        </mxCell>
        <mxCell id="Uz3SCJ1bhqu5c_YVx1Ex-446" value="&lt;font face=&quot;Times New Roman&quot;&gt;M&lt;sub&gt;5&lt;/sub&gt;&lt;/font&gt;" style="rounded=0;whiteSpace=wrap;html=1;fillColor=#FFFFFF;strokeColor=#B85450;strokeWidth=2;fontStyle=1;rotation=0;" vertex="1" parent="1">
          <mxGeometry x="317.5" y="639.5" width="30" height="20" as="geometry"/>
        </mxCell>
        <mxCell id="Uz3SCJ1bhqu5c_YVx1Ex-447" style="edgeStyle=none;rounded=0;orthogonalLoop=1;jettySize=auto;html=1;exitX=0.5;exitY=1;exitDx=0;exitDy=0;entryX=0.5;entryY=0;entryDx=0;entryDy=0;endArrow=block;endFill=1;strokeWidth=1;fontFamily=Times New Roman;" edge="1" source="Uz3SCJ1bhqu5c_YVx1Ex-448" target="Uz3SCJ1bhqu5c_YVx1Ex-449" parent="1">
          <mxGeometry relative="1" as="geometry"/>
        </mxCell>
        <mxCell id="Uz3SCJ1bhqu5c_YVx1Ex-448" value="&lt;b style=&quot;font-family: &amp;#34;times new roman&amp;#34; ; white-space: normal&quot;&gt;D&lt;sub&gt;5&lt;/sub&gt;&lt;/b&gt;" style="ellipse;whiteSpace=wrap;html=1;aspect=fixed;strokeWidth=2;fillColor=#FFFFFF;strokeColor=#82b366;" vertex="1" parent="1">
          <mxGeometry x="252.5" y="639" width="27" height="27" as="geometry"/>
        </mxCell>
        <mxCell id="Uz3SCJ1bhqu5c_YVx1Ex-449" value="&lt;font style=&quot;font-size: 15px&quot; face=&quot;Times New Roman&quot;&gt;End&lt;/font&gt;" style="rounded=1;whiteSpace=wrap;html=1;arcSize=47;strokeWidth=2;fontStyle=1" vertex="1" parent="1">
          <mxGeometry x="302" y="681.5" width="60" height="30" as="geometry"/>
        </mxCell>
        <mxCell id="Uz3SCJ1bhqu5c_YVx1Ex-450" style="edgeStyle=orthogonalEdgeStyle;rounded=0;orthogonalLoop=1;jettySize=auto;html=1;exitX=0.5;exitY=0;exitDx=0;exitDy=0;exitPerimeter=0;entryX=0.473;entryY=1.072;entryDx=0;entryDy=0;entryPerimeter=0;endArrow=block;endFill=1;fontFamily=Times New Roman;curved=1;" edge="1" parent="1">
          <mxGeometry relative="1" as="geometry">
            <mxPoint x="395.3333333333335" y="636.1666666666667" as="sourcePoint"/>
            <mxPoint x="395.3333333333335" y="665.3333333333334" as="targetPoint"/>
            <Array as="points">
              <mxPoint x="421.5" y="636.5"/>
              <mxPoint x="421.5" y="665.5"/>
            </Array>
          </mxGeometry>
        </mxCell>
        <mxCell id="Uz3SCJ1bhqu5c_YVx1Ex-451" value="" style="shape=singleArrow;whiteSpace=wrap;html=1;arrowWidth=0.3633217993079607;arrowSize=0.530882352941164;strokeWidth=2;fillColor=#000000;strokeColor=#000000;" vertex="1" parent="1">
          <mxGeometry x="440" y="544.5" width="40" height="34" as="geometry"/>
        </mxCell>
        <mxCell id="Uz3SCJ1bhqu5c_YVx1Ex-462" value="&lt;font face=&quot;Times New Roman&quot;&gt;M&lt;span style=&quot;font-size: 10px&quot;&gt;M&lt;/span&gt;&lt;/font&gt;" style="rounded=0;whiteSpace=wrap;html=1;fillColor=#FFFFFF;strokeColor=#B85450;strokeWidth=2;fontStyle=1;rotation=0;" vertex="1" parent="1">
          <mxGeometry x="500" y="457" width="30" height="20" as="geometry"/>
        </mxCell>
        <mxCell id="Uz3SCJ1bhqu5c_YVx1Ex-464" value="&lt;font face=&quot;Times New Roman&quot;&gt;M&lt;span style=&quot;font-size: 10px&quot;&gt;I&lt;/span&gt;&lt;/font&gt;" style="rounded=0;whiteSpace=wrap;html=1;fillColor=#FFFFFF;strokeColor=#B85450;strokeWidth=2;fontStyle=1;rotation=0;" vertex="1" parent="1">
          <mxGeometry x="500" y="503" width="30" height="20" as="geometry"/>
        </mxCell>
        <mxCell id="Uz3SCJ1bhqu5c_YVx1Ex-466" value="&lt;font face=&quot;Times New Roman&quot;&gt;M&lt;span style=&quot;font-size: 10px&quot;&gt;M&lt;/span&gt;&lt;/font&gt;" style="rounded=0;whiteSpace=wrap;html=1;fillColor=#FFFFFF;strokeColor=#B85450;strokeWidth=2;fontStyle=1;rotation=0;" vertex="1" parent="1">
          <mxGeometry x="500" y="550" width="30" height="20" as="geometry"/>
        </mxCell>
        <mxCell id="Uz3SCJ1bhqu5c_YVx1Ex-468" value="&lt;font face=&quot;Times New Roman&quot;&gt;GD&lt;/font&gt;" style="rounded=0;whiteSpace=wrap;html=1;fillColor=#FFFFFF;strokeColor=#B85450;strokeWidth=2;fontStyle=1;rotation=0;" vertex="1" parent="1">
          <mxGeometry x="500" y="597" width="30" height="20" as="geometry"/>
        </mxCell>
        <mxCell id="Uz3SCJ1bhqu5c_YVx1Ex-469" value="&lt;font face=&quot;Times New Roman&quot;&gt;MM&lt;/font&gt;" style="rounded=0;whiteSpace=wrap;html=1;fillColor=#FFFFFF;strokeColor=#B85450;strokeWidth=2;fontStyle=1;rotation=0;" vertex="1" parent="1">
          <mxGeometry x="500.5" y="640" width="30" height="20" as="geometry"/>
        </mxCell>
        <mxCell id="Uz3SCJ1bhqu5c_YVx1Ex-473" value="&lt;font face=&quot;Times New Roman&quot;&gt;M&lt;span style=&quot;font-size: 10px&quot;&gt;I&lt;/span&gt;&lt;/font&gt;" style="rounded=0;whiteSpace=wrap;html=1;fillColor=#FFFFFF;strokeColor=#B85450;strokeWidth=2;fontStyle=1;rotation=0;" vertex="1" parent="1">
          <mxGeometry x="570" y="502.5" width="30" height="20" as="geometry"/>
        </mxCell>
        <mxCell id="Uz3SCJ1bhqu5c_YVx1Ex-474" value="&lt;font face=&quot;Times New Roman&quot;&gt;M&lt;span style=&quot;font-size: 10px&quot;&gt;M&lt;/span&gt;&lt;/font&gt;" style="rounded=0;whiteSpace=wrap;html=1;fillColor=#FFFFFF;strokeColor=#B85450;strokeWidth=2;fontStyle=1;rotation=0;" vertex="1" parent="1">
          <mxGeometry x="624.5" y="549.5" width="30" height="20" as="geometry"/>
        </mxCell>
        <mxCell id="Uz3SCJ1bhqu5c_YVx1Ex-475" value="&lt;font face=&quot;Times New Roman&quot;&gt;DG&lt;/font&gt;" style="rounded=0;whiteSpace=wrap;html=1;fillColor=#FFFFFF;strokeColor=#B85450;strokeWidth=2;fontStyle=1;rotation=0;" vertex="1" parent="1">
          <mxGeometry x="680" y="503" width="30" height="20" as="geometry"/>
        </mxCell>
        <mxCell id="Uz3SCJ1bhqu5c_YVx1Ex-477" value="&lt;font face=&quot;Times New Roman&quot;&gt;IM&lt;/font&gt;" style="rounded=0;whiteSpace=wrap;html=1;fillColor=#FFFFFF;strokeColor=#B85450;strokeWidth=2;fontStyle=1;rotation=0;" vertex="1" parent="1">
          <mxGeometry x="569.5" y="596" width="30" height="20" as="geometry"/>
        </mxCell>
        <mxCell id="Uz3SCJ1bhqu5c_YVx1Ex-478" value="&lt;font face=&quot;Times New Roman&quot;&gt;GD&lt;/font&gt;" style="rounded=0;whiteSpace=wrap;html=1;fillColor=#FFFFFF;strokeColor=#B85450;strokeWidth=2;fontStyle=1;rotation=0;" vertex="1" parent="1">
          <mxGeometry x="679.5" y="596.5" width="30" height="20" as="geometry"/>
        </mxCell>
        <mxCell id="Uz3SCJ1bhqu5c_YVx1Ex-479" style="edgeStyle=orthogonalEdgeStyle;rounded=0;orthogonalLoop=1;jettySize=auto;html=1;exitX=0.571;exitY=0;exitDx=0;exitDy=0;exitPerimeter=0;endArrow=block;endFill=1;fontFamily=Times New Roman;curved=1;entryX=1;entryY=0.5;entryDx=0;entryDy=0;" edge="1" parent="1" source="Uz3SCJ1bhqu5c_YVx1Ex-475" target="Uz3SCJ1bhqu5c_YVx1Ex-475">
          <mxGeometry relative="1" as="geometry">
            <mxPoint x="697.7586206896551" y="497.8965517241379" as="sourcePoint"/>
            <mxPoint x="730" y="573" as="targetPoint"/>
            <Array as="points">
              <mxPoint x="697" y="493"/>
              <mxPoint x="730" y="493"/>
              <mxPoint x="730" y="513"/>
            </Array>
          </mxGeometry>
        </mxCell>
        <mxCell id="Uz3SCJ1bhqu5c_YVx1Ex-481" style="edgeStyle=none;rounded=0;orthogonalLoop=1;jettySize=auto;html=1;exitX=-0.026;exitY=1.031;exitDx=0;exitDy=0;exitPerimeter=0;entryX=1;entryY=0.5;entryDx=0;entryDy=0;endArrow=block;endFill=1;fontFamily=Times New Roman;startArrow=block;startFill=1;" edge="1" parent="1" source="Uz3SCJ1bhqu5c_YVx1Ex-475">
          <mxGeometry relative="1" as="geometry">
            <mxPoint x="689.9999999999998" y="499.855" as="sourcePoint"/>
            <mxPoint x="654.9999999999998" y="550" as="targetPoint"/>
          </mxGeometry>
        </mxCell>
        <mxCell id="Uz3SCJ1bhqu5c_YVx1Ex-483" style="rounded=0;orthogonalLoop=1;jettySize=auto;html=1;exitX=-0.026;exitY=1.031;exitDx=0;exitDy=0;exitPerimeter=0;entryX=1;entryY=0.5;entryDx=0;entryDy=0;endArrow=block;endFill=1;fontFamily=Times New Roman;startArrow=block;startFill=1;" edge="1" parent="1">
          <mxGeometry relative="1" as="geometry">
            <mxPoint x="623.7200000000003" y="570.1199999999999" as="sourcePoint"/>
            <mxPoint x="599.4999999999998" y="596.5" as="targetPoint"/>
          </mxGeometry>
        </mxCell>
        <mxCell id="Uz3SCJ1bhqu5c_YVx1Ex-484" style="edgeStyle=none;rounded=0;orthogonalLoop=1;jettySize=auto;html=1;entryX=1;entryY=0.5;entryDx=0;entryDy=0;endArrow=block;endFill=1;fontFamily=Times New Roman;startArrow=block;startFill=1;exitX=-0.016;exitY=0.051;exitDx=0;exitDy=0;exitPerimeter=0;" edge="1" parent="1" source="Uz3SCJ1bhqu5c_YVx1Ex-474">
          <mxGeometry relative="1" as="geometry">
            <mxPoint x="620" y="548" as="sourcePoint"/>
            <mxPoint x="599.9999999999998" y="523" as="targetPoint"/>
          </mxGeometry>
        </mxCell>
        <mxCell id="Uz3SCJ1bhqu5c_YVx1Ex-485" style="edgeStyle=none;rounded=0;orthogonalLoop=1;jettySize=auto;html=1;entryX=1;entryY=0.5;entryDx=0;entryDy=0;endArrow=block;endFill=1;fontFamily=Times New Roman;startArrow=block;startFill=1;exitX=-0.016;exitY=0.051;exitDx=0;exitDy=0;exitPerimeter=0;" edge="1" parent="1">
          <mxGeometry relative="1" as="geometry">
            <mxPoint x="679.52" y="597.52" as="sourcePoint"/>
            <mxPoint x="655.4999999999998" y="570" as="targetPoint"/>
          </mxGeometry>
        </mxCell>
        <mxCell id="Uz3SCJ1bhqu5c_YVx1Ex-482" style="edgeStyle=orthogonalEdgeStyle;rounded=0;orthogonalLoop=1;jettySize=auto;html=1;exitX=0.571;exitY=0;exitDx=0;exitDy=0;exitPerimeter=0;endArrow=block;endFill=1;fontFamily=Times New Roman;curved=1;entryX=1;entryY=0.5;entryDx=0;entryDy=0;" edge="1" parent="1">
          <mxGeometry relative="1" as="geometry">
            <mxPoint x="582" y="616.5" as="sourcePoint"/>
            <mxPoint x="569" y="605.5" as="targetPoint"/>
            <Array as="points">
              <mxPoint x="582" y="626.5"/>
              <mxPoint x="549" y="625.5"/>
              <mxPoint x="549" y="605.5"/>
            </Array>
          </mxGeometry>
        </mxCell>
        <mxCell id="Uz3SCJ1bhqu5c_YVx1Ex-492" style="edgeStyle=orthogonalEdgeStyle;rounded=0;orthogonalLoop=1;jettySize=auto;html=1;exitX=0.5;exitY=0;exitDx=0;exitDy=0;entryX=0;entryY=0.5;entryDx=0;entryDy=0;startArrow=none;startFill=0;endArrow=block;endFill=1;strokeWidth=1;fontFamily=Times New Roman;curved=1;" edge="1" parent="1" source="Uz3SCJ1bhqu5c_YVx1Ex-473" target="Uz3SCJ1bhqu5c_YVx1Ex-473">
          <mxGeometry relative="1" as="geometry">
            <Array as="points">
              <mxPoint x="585" y="493"/>
              <mxPoint x="550" y="493"/>
              <mxPoint x="550" y="512"/>
            </Array>
          </mxGeometry>
        </mxCell>
        <mxCell id="Uz3SCJ1bhqu5c_YVx1Ex-499" style="edgeStyle=orthogonalEdgeStyle;rounded=0;orthogonalLoop=1;jettySize=auto;html=1;exitX=0.5;exitY=0;exitDx=0;exitDy=0;entryX=0;entryY=0.5;entryDx=0;entryDy=0;startArrow=none;startFill=0;endArrow=block;endFill=1;strokeWidth=1;fontFamily=Times New Roman;curved=1;" edge="1" parent="1">
          <mxGeometry relative="1" as="geometry">
            <Array as="points">
              <mxPoint x="694.5" y="627"/>
              <mxPoint x="729.5" y="627"/>
              <mxPoint x="729.5" y="608"/>
            </Array>
            <mxPoint x="694.4047619047619" y="617.1666666666665" as="sourcePoint"/>
            <mxPoint x="709.6428571428571" y="607.1666666666665" as="targetPoint"/>
          </mxGeometry>
        </mxCell>
        <mxCell id="Uz3SCJ1bhqu5c_YVx1Ex-500" value="&lt;font size=&quot;1&quot;&gt;&lt;b style=&quot;font-size: 20px&quot;&gt;a) 生成基于谱的隐马尔可夫模型&lt;/b&gt;&lt;/font&gt;" style="text;html=1;resizable=0;points=[];autosize=1;align=left;verticalAlign=top;spacingTop=-4;fontFamily=Times New Roman;" vertex="1" parent="1">
          <mxGeometry x="274.5" y="332.5" width="300" height="20" as="geometry"/>
        </mxCell>
        <mxCell id="Uz3SCJ1bhqu5c_YVx1Ex-501" value="&lt;font size=&quot;1&quot;&gt;&lt;b style=&quot;font-size: 20px&quot;&gt;b) 成对隐马尔可夫模型的对比&lt;/b&gt;&lt;/font&gt;" style="text;html=1;resizable=0;points=[];autosize=1;align=left;verticalAlign=top;spacingTop=-4;fontFamily=Times New Roman;" vertex="1" parent="1">
          <mxGeometry x="294.5" y="735" width="280" height="20" as="geometry"/>
        </mxCell>
      </root>
    </mxGraphModel>
  </diagram>
</mxfile>
